<?xml version="1.0" standalone="no"?>
<!DOCTYPE svg PUBLIC "-//W3C//DTD SVG 20010904//EN"
 "http://www.w3.org/TR/2001/REC-SVG-20010904/DTD/svg10.dtd">
<svg version="1.0" xmlns="http://www.w3.org/2000/svg"
 width="665.000000pt" height="688.000000pt" viewBox="0 0 665.000000 688.000000"
 preserveAspectRatio="xMidYMid meet">

<g transform="translate(0.000000,688.000000) scale(0.100000,-0.100000)"
fill="#000000" stroke="none">
<path d="M2640 6650 c0 -24 79 -108 170 -182 l45 -36 -40 9 c-68 15 -209 10
-319 -11 -307 -60 -714 -261 -704 -349 5 -40 61 -63 172 -69 50 -2 97 -8 105
-12 8 -4 -17 -19 -69 -40 -196 -79 -384 -223 -461 -354 -20 -34 -20 -36 -3
-43 12 -4 22 1 33 17 74 112 195 214 346 292 96 49 195 91 201 85 3 -2 -41
-41 -96 -86 -257 -210 -408 -404 -417 -536 -5 -62 11 -94 57 -118 47 -25 154
-17 278 19 51 14 94 25 96 23 2 -2 -4 -69 -14 -149 -31 -241 -40 -390 -40
-639 0 -256 9 -379 41 -561 49 -287 139 -501 280 -670 79 -95 230 -196 346
-230 l43 -13 -6 -111 -7 -111 37 -33 c36 -32 38 -32 141 -32 204 0 384 61 546
185 160 124 318 354 416 610 19 49 50 119 68 155 45 91 117 288 113 314 -7 48
-31 18 -67 -84 -114 -321 -268 -563 -446 -698 -84 -64 -225 -134 -320 -159
-98 -25 -361 -25 -455 1 -376 102 -586 424 -672 1026 -9 65 -13 200 -12 430 0
328 10 462 52 744 l7 49 133 63 c72 34 132 59 132 54 0 -5 -5 -12 -10 -15 -20
-12 -70 -110 -70 -137 0 -112 227 -18 555 230 44 33 81 59 83 57 1 -1 -5 -18
-14 -38 -34 -72 10 -115 97 -96 60 14 197 87 325 173 60 41 110 73 112 71 2
-2 -9 -23 -24 -47 -40 -63 -141 -158 -212 -198 -39 -22 -61 -41 -59 -50 12
-63 237 107 313 236 14 24 29 44 32 44 4 0 15 -33 24 -73 54 -226 221 -403
424 -448 l57 -13 -8 -290 c-4 -160 -5 -289 -2 -286 3 3 19 41 36 85 17 44 48
108 68 142 37 60 107 143 121 143 16 0 64 -39 87 -70 106 -143 96 -444 -20
-653 -35 -62 -96 -129 -139 -152 -20 -11 -36 -24 -36 -30 0 -21 49 -317 53
-321 2 -2 14 32 26 76 12 45 69 205 127 358 334 876 384 1042 384 1265 0 197
-43 349 -136 487 -27 40 -52 77 -55 83 -3 7 -20 39 -37 72 -98 189 -307 418
-493 539 -23 14 -28 14 -38 2 -10 -12 1 -24 61 -69 40 -30 95 -75 122 -99 53
-46 206 -217 206 -230 0 -4 -36 17 -81 48 -266 181 -715 333 -1294 439 -77 14
-175 29 -217 32 -77 6 -78 6 -78 -17z m214 -294 c60 -18 80 -34 66 -52 -9 -10
-18 -10 -46 2 -123 51 -338 12 -568 -103 -86 -43 -122 -49 -110 -19 13 35 293
151 419 175 77 14 187 13 239 -3z m966 -480 c0 -2 -9 -38 -20 -82 -43 -164
-21 -301 55 -345 36 -22 42 -41 13 -47 -25 -5 -89 58 -111 108 -25 55 -26 175
-3 273 20 84 32 108 51 101 8 -4 15 -7 15 -8z"/>
<path d="M2365 5094 c-62 -22 -99 -56 -91 -82 10 -29 28 -28 76 4 59 39 110
38 153 -4 57 -55 106 -35 64 27 -26 37 -91 71 -133 70 -16 0 -47 -7 -69 -15z"/>
<path d="M3296 5015 c-54 -19 -90 -48 -94 -74 -5 -32 22 -35 70 -8 69 40 113
39 162 -4 58 -50 100 -22 55 35 -25 32 -92 66 -129 65 -14 0 -43 -6 -64 -14z"/>
<path d="M2400 4681 c-5 -11 -10 -43 -10 -71 0 -60 13 -90 40 -90 26 0 42 34
42 90 0 26 -5 57 -11 69 -15 26 -47 27 -61 2z"/>
<path d="M2715 4668 c-3 -7 -25 -96 -49 -198 -25 -102 -59 -243 -76 -314 -17
-71 -28 -136 -26 -143 7 -16 331 -19 341 -3 3 6 3 19 0 30 -6 19 -15 20 -136
20 -113 0 -129 2 -129 16 0 9 30 142 66 295 37 152 64 284 61 293 -8 19 -46
21 -52 4z"/>
<path d="M3264 4583 c-17 -39 -13 -106 8 -130 16 -19 46 -16 58 6 5 11 10 40
10 65 0 93 -47 130 -76 59z"/>
<path d="M4184 4531 c-45 -28 -88 -84 -139 -183 -47 -93 -55 -128 -30 -128 9
0 31 34 55 81 68 138 118 199 162 199 32 0 49 27 27 41 -21 13 -41 11 -75 -10z"/>
<path d="M2890 3653 c-95 -75 -146 -81 -199 -23 -20 22 -44 40 -53 40 -46 0
-15 -82 46 -119 63 -39 143 -24 236 44 51 37 63 56 54 80 -9 24 -35 17 -84
-22z"/>
<path d="M3809 2644 c-272 -316 -434 -512 -434 -525 0 -18 32 -35 205 -111
442 -193 523 -226 536 -221 16 6 19 43 4 43 -14 0 -672 288 -683 299 -4 4 180
227 410 495 230 268 419 493 421 500 2 8 -3 16 -11 19 -10 4 -154 -156 -448
-499z"/>
<path d="M2840 853 c-40 -40 -58 -90 -87 -233 -22 -107 -22 -342 -1 -395 14
-37 14 -44 1 -70 -21 -41 -41 -55 -79 -55 -77 0 -118 86 -117 250 0 161 44
355 98 435 49 72 12 98 -40 29 -55 -72 -114 -370 -102 -517 5 -59 3 -71 -14
-88 -10 -10 -23 -19 -29 -19 -23 0 -79 65 -105 121 -25 57 -27 69 -23 158 5
108 38 217 83 277 27 35 28 64 2 64 -20 0 -40 -27 -69 -95 -91 -208 -81 -394
27 -512 43 -48 76 -58 130 -39 17 6 24 1 38 -28 32 -68 124 -97 188 -59 16 10
29 20 29 23 0 3 7 13 15 24 13 17 15 17 50 -10 26 -20 52 -29 89 -32 52 -4 54
-3 81 32 l28 37 27 -26 c17 -16 37 -25 60 -25 92 0 158 125 214 405 18 91 20
117 10 130 -21 28 -31 10 -44 -77 -45 -313 -163 -507 -228 -375 -24 50 -34
141 -29 267 9 205 59 360 125 389 37 17 45 51 12 51 -35 0 -77 -28 -100 -65
-12 -19 -33 -79 -48 -133 -23 -87 -26 -117 -27 -304 -2 -195 -4 -208 -24 -237
-45 -63 -142 -20 -187 84 -39 90 -10 417 48 533 13 26 37 56 55 67 40 25 44
55 7 55 -17 0 -40 -13 -64 -37z"/>
</g>
</svg>
