<svg version="1.1" id="Layer_1" xmlns="http://www.w3.org/2000/svg" xmlns:xlink="http://www.w3.org/1999/xlink" x="0px" y="0px"
	 width="100%" viewBox="0 0 665 688" enable-background="new 0 0 665 688" xml:space="preserve">
<path fill="#FFFFFF" opacity="1.000000" stroke="none" 
	d="
M666.000000,187.000000 
	C666.000000,354.666656 666.000000,521.833313 666.000000,689.000000 
	C555.166687,689.000000 444.333405,689.000000 333.500092,689.000000 
	C222.666779,689.000000 111.833458,689.000000 1.000104,689.000000 
	C1.000070,459.666748 1.000070,230.333481 1.000035,1.000166 
	C222.666565,1.000111 444.333130,1.000111 665.999878,1.000055 
	C666.000000,62.833332 666.000000,124.666664 666.000000,187.000000 
M419.459412,617.912720 
	C419.947998,617.649658 420.436554,617.386658 421.405518,616.896179 
	C421.581879,616.879395 421.758209,616.862549 422.496887,616.974365 
	C422.971710,616.718689 423.446533,616.462952 424.619720,615.881348 
	C429.669922,614.181213 434.757690,612.584534 439.764465,610.764954 
	C494.642853,590.821045 540.442749,558.029541 576.693420,512.360046 
	C587.510376,498.732574 596.291382,483.488953 606.489258,468.729126 
	C606.601990,468.395111 606.714783,468.061127 606.924744,467.100525 
	C607.359192,466.384552 607.793579,465.668579 608.611877,464.751190 
	C608.843445,464.540436 608.945679,464.279022 608.977966,463.298950 
	C609.249939,462.227997 609.521912,461.157074 610.460938,459.793884 
	C612.907959,454.942627 615.659485,450.218689 617.749268,445.218140 
	C626.839783,423.465515 634.979431,401.367493 638.452026,377.914917 
	C640.654846,363.037903 643.068481,348.100769 643.773132,333.114716 
	C644.825745,310.727722 643.000427,288.443085 639.218384,266.236267 
	C634.414612,238.030899 625.678406,211.114441 613.358826,185.530762 
	C604.410095,166.947144 593.573364,149.278885 580.706299,132.913025 
	C567.823792,116.527573 553.823608,101.319084 538.155884,87.584152 
	C519.252930,71.013123 498.675659,57.018089 476.321625,45.469475 
	C453.824615,33.847019 430.377838,25.126850 405.729126,19.309109 
	C384.020081,14.185210 362.020416,11.843384 339.823242,11.108221 
	C331.884277,10.845284 323.900360,11.525036 315.953369,12.031968 
	C307.361450,12.580043 298.593994,12.527586 290.247131,14.330015 
	C271.509430,18.376236 252.763031,22.675701 234.427902,28.220375 
	C210.024323,35.600193 187.403168,47.200069 166.200027,61.329998 
	C140.081131,78.735802 116.867767,99.391800 96.721611,123.598236 
	C79.738579,144.004028 65.996864,166.397125 54.606358,190.189285 
	C44.206783,211.911591 37.451126,234.895645 32.411442,258.533356 
	C28.020449,279.128540 27.018467,299.883942 26.106205,320.716370 
	C25.824520,327.148926 26.444933,333.651672 27.046947,340.085327 
	C28.048214,350.785767 28.700020,361.584595 30.719990,372.107635 
	C33.359276,385.857086 36.403770,399.632111 40.710220,412.931000 
	C45.652245,428.192596 51.260494,443.385223 58.260361,457.791016 
	C64.819901,471.290558 73.348763,483.868317 81.478874,496.551819 
	C84.622269,501.455688 89.052422,505.534790 92.951309,510.664001 
	C92.917595,511.113373 92.883881,511.562714 92.543266,512.223206 
	C92.714851,512.471375 92.886444,512.719482 93.419395,513.526428 
	C96.230316,516.538513 99.133278,519.470337 101.837997,522.574951 
	C130.959656,556.002502 165.520554,582.243713 205.857010,600.650024 
	C216.386459,605.454895 227.493805,608.993347 238.227020,613.827637 
	C235.851837,621.059937 232.914627,628.164307 231.231934,635.554321 
	C228.645279,646.914307 230.587936,657.694397 237.755035,667.231506 
	C242.847336,674.007629 246.373459,675.080505 254.245026,672.168030 
	C261.679871,686.079956 270.791962,687.220215 280.923950,675.506531 
	C290.851501,682.330566 297.105988,685.227600 304.336182,674.523682 
	C312.097809,681.544983 318.226868,680.830688 323.625580,672.010315 
	C325.519867,668.915466 327.363739,665.594849 328.270050,662.126343 
	C331.079315,651.374817 333.426880,640.502686 336.837891,629.603638 
	C342.866699,629.328064 348.895477,629.052490 355.729126,628.948669 
	C357.467682,628.608154 359.206238,628.267639 360.928253,627.957581 
	C360.928253,627.957581 360.894684,627.928223 361.762085,628.007507 
	C367.540924,627.682678 373.321136,627.379822 379.098236,627.026489 
	C384.543823,626.693420 390.019379,626.542175 395.406494,625.779236 
	C396.753967,625.588379 397.812073,623.354126 399.679260,621.999878 
	C400.130981,622.010376 400.582733,622.020935 401.196716,622.375488 
	C401.427582,622.206665 401.658447,622.037903 402.554688,621.572754 
	C403.990631,621.322205 405.426575,621.071655 407.609283,620.975159 
	C409.389313,620.392273 411.169373,619.809326 413.557312,618.982971 
	C413.987976,618.923584 414.418610,618.864197 415.597351,618.969482 
	C416.665253,618.567749 417.733185,618.166016 418.856384,617.791870 
	C418.856384,617.791870 418.883301,617.736328 419.459412,617.912720 
z"/>
<path fill="#E7E6E7" opacity="1.000000" stroke="none" 
	d="
M92.896347,509.989624 
	C89.052422,505.534790 84.622269,501.455688 81.478874,496.551819 
	C73.348763,483.868317 64.819901,471.290558 58.260361,457.791016 
	C51.260494,443.385223 45.652245,428.192596 40.710220,412.931000 
	C36.403770,399.632111 33.359276,385.857086 30.719990,372.107635 
	C28.700020,361.584595 28.048214,350.785767 27.046947,340.085327 
	C26.444933,333.651672 25.824520,327.148926 26.106205,320.716370 
	C27.018467,299.883942 28.020449,279.128540 32.411442,258.533356 
	C37.451126,234.895645 44.206783,211.911591 54.606358,190.189285 
	C65.996864,166.397125 79.738579,144.004028 96.721611,123.598236 
	C116.867767,99.391800 140.081131,78.735802 166.200027,61.329998 
	C187.403168,47.200069 210.024323,35.600193 234.427902,28.220375 
	C252.763031,22.675701 271.509430,18.376236 290.247131,14.330015 
	C298.593994,12.527586 307.361450,12.580043 315.953369,12.031968 
	C323.900360,11.525036 331.884277,10.845284 339.823242,11.108221 
	C362.020416,11.843384 384.020081,14.185210 405.729126,19.309109 
	C430.377838,25.126850 453.824615,33.847019 476.321625,45.469475 
	C498.675659,57.018089 519.252930,71.013123 538.155884,87.584152 
	C553.823608,101.319084 567.823792,116.527573 580.706299,132.913025 
	C593.573364,149.278885 604.410095,166.947144 613.358826,185.530762 
	C625.678406,211.114441 634.414612,238.030899 639.218384,266.236267 
	C643.000427,288.443085 644.825745,310.727722 643.773132,333.114716 
	C643.068481,348.100769 640.654846,363.037903 638.452026,377.914917 
	C634.979431,401.367493 626.839783,423.465515 617.749268,445.218140 
	C615.659485,450.218689 612.907959,454.942627 609.822021,459.804535 
	C579.010071,439.946991 546.303467,425.663422 511.338684,416.919128 
	C493.466736,412.449524 475.169342,409.680939 457.039734,405.749451 
	C455.384033,403.113678 454.086853,400.496307 452.062653,398.696625 
	C444.136871,391.650208 435.981476,384.862091 427.911804,377.635620 
	C427.273926,376.257874 426.635651,375.222473 425.902313,373.873962 
	C423.862579,358.508514 422.022339,343.441345 419.882324,328.416870 
	C419.470551,325.525909 417.882751,322.802460 416.803345,319.592346 
	C417.004150,317.840729 417.239044,316.498444 417.660248,314.873596 
	C424.464569,296.624695 431.137970,278.678497 437.684723,260.686218 
	C443.942627,243.487793 450.068665,226.241379 456.319641,208.947296 
	C456.386597,208.878525 456.396729,208.686813 456.634064,208.411987 
	C460.050812,197.404663 463.230225,186.672180 466.567383,175.629181 
	C466.745056,174.859772 466.765015,174.400864 466.996063,173.625275 
	C467.644928,169.857437 468.082672,166.406296 468.622864,162.559570 
	C468.719604,161.080917 468.713837,159.997818 468.894348,158.566254 
	C468.974030,153.837112 468.867462,149.456451 468.816528,144.734329 
	C468.800903,143.940903 468.729584,143.488907 468.749451,142.608978 
	C467.344482,127.703911 463.361206,114.140709 454.216980,102.306389 
	C454.188141,102.149399 453.898102,102.016014 453.837280,101.699326 
	C452.488556,99.988029 451.200592,98.593414 449.920959,97.133965 
	C449.929321,97.069122 449.799255,97.082664 449.702026,96.716965 
	C447.019196,91.368004 444.433563,86.384750 441.874420,81.293030 
	C441.900909,81.184563 441.689362,81.113068 441.661499,80.789307 
	C440.457092,78.906982 439.280609,77.348419 438.074921,75.573456 
	C437.915527,75.071533 437.698517,74.889633 437.315308,74.466759 
	C427.947266,64.003410 418.857513,53.690487 409.268555,43.864761 
	C405.609344,40.115227 400.877563,37.374996 396.463959,34.430584 
	C395.577545,33.839222 393.918488,34.405949 392.615692,34.438713 
	C393.158203,35.626202 393.539124,36.932671 394.296906,37.961613 
	C394.852203,38.715580 395.906006,39.099476 396.730927,39.658195 
	C408.356934,47.532360 418.405914,57.065941 426.942017,68.217926 
	C428.253906,69.931870 428.845276,71.072960 425.674377,71.118057 
	C423.262329,69.586395 421.146179,68.243210 418.954132,66.614777 
	C418.245361,65.940994 417.612488,65.552444 416.867371,65.013077 
	C416.755188,64.862267 416.381897,64.817764 416.188904,64.534142 
	C411.699646,62.080395 407.403351,59.910267 402.937317,57.522640 
	C402.082306,57.051571 401.397034,56.798000 400.473267,56.309357 
	C398.804779,55.508511 397.374817,54.942734 395.675903,54.188766 
	C394.591400,53.718140 393.775787,53.435711 392.724060,52.895374 
	C370.028778,43.201393 346.775909,36.369217 322.628967,31.309669 
	C321.864166,31.168144 321.413849,31.155333 320.693420,30.904499 
	C318.262573,30.260250 316.101807,29.854025 313.620514,29.328388 
	C312.847198,29.206285 312.394440,29.203592 311.643127,28.986828 
	C308.878754,28.328178 306.412933,27.883600 303.627197,27.323498 
	C302.857208,27.198801 302.407104,27.189629 301.656128,26.969757 
	C298.879639,26.383911 296.404022,26.008760 293.582886,25.468571 
	C292.476349,25.258984 291.715363,25.214437 290.632629,24.961573 
	C283.764862,23.743645 277.235077,22.596914 270.661957,21.815052 
	C268.885376,21.603735 266.977386,22.497709 265.129700,22.884350 
	C265.798035,24.813154 265.928162,27.288754 267.231934,28.571949 
	C271.807617,33.075516 276.787262,37.168694 281.747040,41.259254 
	C281.880524,41.100853 281.646332,41.442604 281.927185,41.871265 
	C283.469513,45.624763 281.019958,44.253990 279.677612,44.307274 
	C271.791687,44.620289 263.906006,44.939899 255.686157,45.213428 
	C254.920212,45.280300 254.488373,45.391026 253.662689,45.435474 
	C240.273132,49.425438 227.277405,53.481686 214.042068,57.551231 
	C213.483810,57.656624 213.221954,57.833019 212.653519,58.089272 
	C209.796341,59.325073 207.302521,60.565323 204.861771,61.853912 
	C204.914825,61.902256 204.869736,61.765976 204.549744,61.778488 
	C203.725311,62.147911 203.220886,62.504822 202.517151,62.872818 
	C202.317856,62.883911 202.028168,63.158619 201.707626,63.148312 
	C200.521072,63.722290 199.655060,64.306572 198.569031,64.917839 
	C198.349014,64.944817 198.033401,65.256165 197.694092,65.282341 
	C195.133636,66.762627 192.912460,68.216728 190.815735,69.803864 
	C190.940201,69.936897 190.720490,69.646240 190.396332,69.703308 
	C189.239639,70.437820 188.407104,71.115257 187.395050,71.826691 
	C187.215500,71.860703 187.026306,72.173393 186.701736,72.235573 
	C185.115082,73.378075 183.753098,74.362564 182.608551,75.555641 
	C178.125870,80.228439 178.879272,84.001228 185.076767,85.867500 
	C189.338470,87.150833 193.866852,87.612312 198.306305,88.219948 
	C201.438309,88.648621 204.621094,88.706314 207.781204,88.929642 
	C206.571274,90.513283 205.256882,91.077835 203.979843,91.717003 
	C196.397095,95.512253 188.584122,98.920746 181.302155,103.226410 
	C170.438385,109.649918 161.128189,117.963501 154.493042,128.881485 
	C153.856232,129.929321 154.448486,131.724091 154.470184,133.172119 
	C155.641846,132.533951 157.276184,132.196884 157.916504,131.212952 
	C169.550446,113.335800 187.072861,103.443718 206.045853,95.503166 
	C206.904251,95.143906 207.948196,95.228012 208.905731,95.105621 
	C208.901703,95.707260 208.897675,96.308891 208.941833,96.948181 
	C208.990036,96.985832 208.919724,96.885742 208.659088,96.962479 
	C208.258972,97.356155 208.119507,97.673096 207.990997,97.994087 
	C208.001968,97.998146 207.986313,97.978889 207.671509,98.101639 
	C204.828018,100.414291 202.299332,102.604195 199.867004,104.878403 
	C199.963379,104.962700 199.796768,104.768227 199.469666,104.860817 
	C193.997375,109.872574 188.852188,114.791733 183.815887,119.861145 
	C183.924789,120.011398 183.726791,119.698074 183.465790,119.760757 
	C183.032608,120.122704 182.860413,120.421959 182.792358,120.817581 
	C182.896484,120.913940 182.726837,120.686493 182.449249,120.771835 
	C181.975708,121.178299 181.779770,121.499428 181.305847,121.964035 
	C179.662186,123.681740 178.296509,125.255974 176.666016,126.919998 
	C176.247162,127.333778 176.093124,127.657745 175.658188,128.154907 
	C174.464157,129.792496 173.550995,131.256866 172.648148,132.764145 
	C172.658447,132.807037 172.570847,132.796677 172.294006,132.738037 
	C171.602173,133.284210 171.187195,133.889038 170.488983,134.645462 
	C169.806686,135.533081 169.407623,136.269104 169.004272,137.002563 
	C169.000000,137.000000 169.005859,137.008804 168.714722,137.159027 
	C167.367813,139.214188 166.312057,141.119141 165.078720,143.204987 
	C164.821472,143.709030 164.741791,144.032181 164.387360,144.582581 
	C163.295197,147.557861 162.477798,150.305847 161.472656,153.357910 
	C161.281235,154.133881 161.277573,154.605759 161.086884,155.358246 
	C160.938293,164.129440 163.522614,167.399597 171.357010,168.653259 
	C172.126724,168.816528 172.589066,168.808762 173.211594,168.936890 
	C173.894211,168.983871 174.416626,168.894958 175.369827,168.892548 
	C177.516998,168.759018 179.233398,168.538971 181.340240,168.414734 
	C188.037216,166.777420 194.343781,165.044312 200.756577,163.322968 
	C200.862823,163.334747 201.010925,163.180542 201.286743,163.196411 
	C201.711365,163.103745 201.860168,162.995193 202.404297,162.851685 
	C203.298874,162.641205 203.798111,162.465668 204.442261,162.754150 
	C200.580093,192.628052 197.896698,222.124924 198.588226,251.855637 
	C199.124603,274.916138 201.300430,297.769196 207.908615,319.967438 
	C217.421417,351.922852 233.695099,378.131500 267.706268,388.963318 
	C268.642181,389.261383 269.751190,391.065247 269.690887,392.103760 
	C269.344360,398.071625 268.669067,404.020416 267.723022,409.994202 
	C266.558136,410.219666 265.687256,410.270874 265.005951,410.656708 
	C252.468124,417.756714 239.952988,424.896790 227.119781,431.826538 
	C225.059174,431.890076 223.235321,431.918976 221.575851,432.455963 
	C193.661972,441.488831 166.586990,452.588379 140.305710,465.626068 
	C128.668716,471.398987 116.783195,476.880737 108.735832,487.713806 
	C103.303902,495.026093 98.165848,502.556671 92.896347,509.989624 
z"/>
<path fill="#D58520" opacity="1.000000" stroke="none" 
	d="
M92.923828,510.326813 
	C98.165848,502.556671 103.303902,495.026093 108.735832,487.713806 
	C116.783195,476.880737 128.668716,471.398987 140.305710,465.626068 
	C166.586990,452.588379 193.661972,441.488831 221.575851,432.455963 
	C223.235321,431.918976 225.059174,431.890076 227.077118,432.158569 
	C228.231277,434.093658 229.026718,435.560333 230.011475,436.886505 
	C248.943924,462.382874 267.897430,487.863617 286.849854,513.345154 
	C289.479797,516.881226 292.126923,520.404480 295.216583,524.536011 
	C309.520905,508.768921 323.230377,493.657471 337.243103,478.512268 
	C349.745087,483.748047 361.954041,488.994232 374.139740,494.293976 
	C385.415100,499.197754 396.644958,504.207214 407.953888,509.031738 
	C409.327118,509.617584 411.067352,509.343262 412.637482,509.467621 
	C412.673004,508.282867 412.708527,507.098083 412.856323,505.514343 
	C419.400299,490.516846 425.858490,475.929932 432.256805,461.316833 
	C440.047974,443.522552 447.788727,425.706207 455.747467,407.723694 
	C455.966888,407.373962 455.990143,407.199951 456.241516,406.949707 
	C456.767334,406.711243 456.965546,406.467896 457.064240,406.143494 
	C475.169342,409.680939 493.466736,412.449524 511.338684,416.919128 
	C546.303467,425.663422 579.010071,439.946991 609.488525,459.950684 
	C609.521912,461.157074 609.249939,462.227997 608.733337,463.711273 
	C608.216736,464.341705 608.129822,464.618011 608.227966,464.952576 
	C607.793579,465.668579 607.359192,466.384552 606.632690,467.539490 
	C606.228821,468.314270 606.117004,468.650055 606.005249,468.985840 
	C596.291382,483.488953 587.510376,498.732574 576.693420,512.360046 
	C540.442749,558.029541 494.642853,590.821045 439.764465,610.764954 
	C434.757690,612.584534 429.669922,614.181213 423.994080,615.966125 
	C422.890442,616.315857 422.412506,616.580811 421.934570,616.845764 
	C421.758209,616.862549 421.581879,616.879395 420.883850,616.940552 
	C419.869232,617.235413 419.376282,617.485840 418.883301,617.736328 
	C418.883301,617.736328 418.856384,617.791870 418.478485,617.742920 
	C417.016815,618.064270 415.933044,618.434570 414.849274,618.804810 
	C414.418610,618.864197 413.987976,618.923584 412.894928,619.030029 
	C410.442535,619.658447 408.652527,620.239746 406.862518,620.821045 
	C405.426575,621.071655 403.990631,621.322205 401.992706,621.676758 
	C401.430725,621.780762 401.034454,622.031494 401.034454,622.031494 
	C400.582733,622.020935 400.130981,622.010376 399.331116,621.659424 
	C394.883301,609.671509 380.471863,601.954895 368.666779,605.885315 
	C361.648071,608.222046 354.655914,611.317749 348.506256,615.369141 
	C343.639954,618.575073 341.078583,617.824524 337.122925,614.239014 
	C332.259491,609.830444 326.463379,606.450806 320.974792,602.300781 
	C319.058441,601.569214 316.467010,600.205750 315.560272,600.935547 
	C312.749542,603.197571 310.579437,606.255676 307.987946,609.329468 
	C307.225220,610.647278 306.635223,611.640259 305.692688,612.490356 
	C301.562256,609.186584 297.784393,606.025757 293.909515,602.545166 
	C292.038452,601.910950 289.503784,600.699585 288.627014,601.443176 
	C285.479706,604.112366 282.892883,607.442444 279.750916,610.369568 
	C276.135406,608.303467 274.148987,603.836731 268.996887,604.862793 
	C266.725281,605.514587 264.086304,605.905884 262.872711,607.431274 
	C260.762970,610.083069 259.533569,613.435120 257.636749,616.285095 
	C253.701004,613.224792 251.914658,607.376343 245.291870,608.723206 
	C242.757858,610.112427 240.546799,611.612915 238.335724,613.113403 
	C227.493805,608.993347 216.386459,605.454895 205.857010,600.650024 
	C165.520554,582.243713 130.959656,556.002502 101.837997,522.574951 
	C99.133278,519.470337 96.230316,516.538513 93.287506,512.986450 
	C93.053802,512.301636 92.951981,512.156860 92.850166,512.012085 
	C92.883881,511.562714 92.917595,511.113373 92.923828,510.326813 
z"/>
<path fill="#FAC8DB" opacity="1.000000" stroke="none" 
	d="
M321.070404,602.626465 
	C326.463379,606.450806 332.259491,609.830444 337.122925,614.239014 
	C341.078583,617.824524 343.639954,618.575073 348.506256,615.369141 
	C354.655914,611.317749 361.648071,608.222046 368.666779,605.885315 
	C380.471863,601.954895 394.883301,609.671509 398.993042,621.689026 
	C397.812073,623.354126 396.753967,625.588379 395.406494,625.779236 
	C390.019379,626.542175 384.543823,626.693420 379.098236,627.026489 
	C373.321136,627.379822 367.540924,627.682678 361.026062,627.709229 
	C352.165527,626.998291 344.041016,626.585632 335.599304,625.997070 
	C332.899017,623.748596 332.580780,623.887878 331.909058,627.297546 
	C330.209167,635.925903 329.049713,644.709290 326.634003,653.132385 
	C324.786346,659.574829 321.984955,665.957642 318.440674,671.638916 
	C314.956635,677.223633 309.837860,676.456299 307.948944,670.180542 
	C306.155914,664.223450 304.671387,657.771729 305.032806,651.654663 
	C305.704224,640.292297 307.606812,628.981140 309.417053,617.716309 
	C310.368256,611.797241 312.914001,606.528076 319.430420,604.077332 
	C320.193176,603.575623 320.631805,603.101013 321.070404,602.626465 
z"/>
<path fill="#261867" opacity="1.000000" stroke="none" 
	d="
M319.106262,604.104492 
	C312.914001,606.528076 310.368256,611.797241 309.417053,617.716309 
	C307.606812,628.981140 305.704224,640.292297 305.032806,651.654663 
	C304.671387,657.771729 306.155914,664.223450 307.948944,670.180542 
	C309.837860,676.456299 314.956635,677.223633 318.440674,671.638916 
	C321.984955,665.957642 324.786346,659.574829 326.634003,653.132385 
	C329.049713,644.709290 330.209167,635.925903 331.909058,627.297546 
	C332.580780,623.887878 332.899017,623.748596 335.651062,626.350708 
	C335.997955,627.812683 335.975800,628.744995 335.953613,629.677368 
	C333.426880,640.502686 331.079315,651.374817 328.270050,662.126343 
	C327.363739,665.594849 325.519867,668.915466 323.625580,672.010315 
	C318.226868,680.830688 312.097809,681.544983 304.336182,674.523682 
	C297.105988,685.227600 290.851501,682.330566 280.923950,675.506531 
	C270.791962,687.220215 261.679871,686.079956 254.245026,672.168030 
	C246.373459,675.080505 242.847336,674.007629 237.755035,667.231506 
	C230.587936,657.694397 228.645279,646.914307 231.231934,635.554321 
	C232.914627,628.164307 235.851837,621.059937 238.281372,613.470520 
	C240.546799,611.612915 242.757858,610.112427 245.352280,609.008911 
	C245.473465,610.329712 245.460342,611.449768 244.910782,612.147217 
	C239.155136,619.451782 236.697617,628.062134 235.122223,636.970520 
	C233.128387,648.245117 235.248642,658.573792 243.360260,667.035461 
	C244.719513,668.453369 248.214615,669.875793 249.178314,669.174255 
	C250.939102,667.892639 252.292007,665.094482 252.505051,662.806946 
	C253.472809,652.415771 253.743439,641.958496 254.761734,631.573730 
	C255.260040,626.492126 256.843018,621.516968 257.935028,616.493591 
	C259.533569,613.435120 260.762970,610.083069 262.872711,607.431274 
	C264.086304,605.905884 266.725281,605.514587 268.938873,605.221863 
	C266.982269,609.901611 263.812134,613.746094 262.827820,618.086365 
	C260.120819,630.022522 257.416901,642.100342 256.537109,654.254272 
	C256.048828,660.999634 258.574127,668.240662 260.957886,674.817200 
	C262.500854,679.074219 268.421417,680.219482 272.138977,678.373779 
	C276.127747,676.393311 277.467377,671.537659 276.574432,666.974426 
	C275.310394,660.514771 273.821106,653.776855 274.420868,647.343689 
	C275.571533,635.001038 278.123566,622.789001 280.094238,610.522766 
	C282.892883,607.442444 285.479706,604.112366 288.627014,601.443176 
	C289.503784,600.699585 292.038452,601.910950 293.732483,602.849609 
	C288.144318,605.479858 285.422272,609.859131 283.662689,615.103760 
	C279.320435,628.046326 278.092407,641.431458 278.360962,654.952698 
	C278.495056,661.703064 280.112518,668.206726 285.325439,673.119934 
	C292.363892,679.753662 298.900513,678.072449 301.604187,668.888794 
	C302.047974,667.381470 301.794861,665.634460 301.696747,664.008362 
	C301.386536,658.867920 300.233612,653.647949 300.790314,648.611633 
	C302.121124,636.572327 304.242828,624.620483 306.045227,612.633301 
	C306.635223,611.640259 307.225220,610.647278 308.322327,609.293701 
	C311.098267,606.905945 313.251678,604.715088 315.721741,602.973389 
	C316.297699,602.567200 317.949463,603.686890 319.106262,604.104492 
z"/>
<path fill="#D29D74" opacity="1.000000" stroke="none" 
	d="
M336.395752,629.640503 
	C335.975800,628.744995 335.997955,627.812683 335.968323,626.526672 
	C344.041016,626.585632 352.165527,626.998291 360.592346,627.669556 
	C360.894684,627.928223 360.928253,627.957581 360.541351,627.915649 
	C358.411072,628.174744 356.667664,628.475830 354.924286,628.776978 
	C348.895477,629.052490 342.866699,629.328064 336.395752,629.640503 
z"/>
<path fill="#FAC8DB" opacity="1.000000" stroke="none" 
	d="
M407.235901,620.898071 
	C408.652527,620.239746 410.442535,619.658447 412.591003,619.151733 
	C411.169373,619.809326 409.389313,620.392273 407.235901,620.898071 
z"/>
<path fill="#FAC8DB" opacity="1.000000" stroke="none" 
	d="
M355.326721,628.862793 
	C356.667664,628.475830 358.411072,628.174744 360.549622,627.900391 
	C359.206238,628.267639 357.467682,628.608154 355.326721,628.862793 
z"/>
<path fill="#FAC8DB" opacity="1.000000" stroke="none" 
	d="
M415.223328,618.887207 
	C415.933044,618.434570 417.016815,618.064270 418.450867,617.729126 
	C417.733185,618.166016 416.665253,618.567749 415.223328,618.887207 
z"/>
<path fill="#FAC8DB" opacity="1.000000" stroke="none" 
	d="
M419.171356,617.824524 
	C419.376282,617.485840 419.869232,617.235413 420.643677,617.054260 
	C420.436554,617.386658 419.947998,617.649658 419.171356,617.824524 
z"/>
<path fill="#FAC8DB" opacity="1.000000" stroke="none" 
	d="
M422.215729,616.910034 
	C422.412506,616.580811 422.890442,616.315857 423.644897,616.129089 
	C423.446533,616.462952 422.971710,616.718689 422.215729,616.910034 
z"/>
<path fill="#FAC8DB" opacity="1.000000" stroke="none" 
	d="
M401.115601,622.203491 
	C401.034454,622.031494 401.430725,621.780762 401.660034,621.824951 
	C401.658447,622.037903 401.427582,622.206665 401.115601,622.203491 
z"/>
<path fill="#E7E6E7" opacity="1.000000" stroke="none" 
	d="
M92.696716,512.117676 
	C92.951981,512.156860 93.053802,512.301636 93.106827,512.707031 
	C92.886444,512.719482 92.714851,512.471375 92.696716,512.117676 
z"/>
<path fill="#E7E6E7" opacity="1.000000" stroke="none" 
	d="
M606.247253,468.857483 
	C606.117004,468.650055 606.228821,468.314270 606.584106,467.852783 
	C606.714783,468.061127 606.601990,468.395111 606.247253,468.857483 
z"/>
<path fill="#E7E6E7" opacity="1.000000" stroke="none" 
	d="
M608.419922,464.851868 
	C608.129822,464.618011 608.216736,464.341705 608.703735,464.045288 
	C608.945679,464.279022 608.843445,464.540436 608.419922,464.851868 
z"/>
<path fill="#FCCADF" opacity="1.000000" stroke="none" 
	d="
M416.837494,320.001740 
	C417.882751,322.802460 419.470551,325.525909 419.882324,328.416870 
	C422.022339,343.441345 423.862579,358.508514 425.618652,374.031982 
	C424.370300,375.546753 423.229950,376.521027 422.262665,377.644318 
	C406.085388,396.430847 389.959412,415.261627 373.759399,434.028503 
	C361.923615,447.739594 349.996765,461.372040 337.757599,475.013428 
	C336.578735,474.456909 335.642273,474.042786 334.943726,473.378479 
	C326.632141,465.473694 318.423462,457.459564 310.048676,449.622772 
	C303.629456,443.615814 296.816071,438.019897 290.552216,431.860596 
	C286.395355,427.773163 282.898773,423.014160 279.548828,418.437622 
	C286.991150,417.847107 293.991333,417.374756 301.358032,416.933960 
	C302.175964,416.793457 302.627319,416.621399 303.452515,416.512817 
	C309.143585,414.902832 314.460785,413.229401 320.012054,411.550751 
	C320.559143,411.457092 320.811066,411.281158 321.374023,411.022797 
	C327.265076,407.730133 332.784027,404.432465 338.565735,401.078278 
	C339.210480,400.661346 339.592468,400.300934 340.298279,399.882507 
	C342.214325,398.377472 343.806610,396.930511 345.270813,395.348267 
	C345.142700,395.213043 345.434418,395.444763 345.704651,395.369141 
	C346.300812,394.856110 346.626709,394.418732 347.190369,393.900940 
	C347.621979,393.554901 347.815857,393.289276 348.330200,392.953491 
	C350.076996,391.243744 351.503357,389.604156 352.962097,387.979126 
	C352.994446,387.993713 352.964630,387.929260 353.279816,387.827637 
	C355.362335,385.478851 357.129639,383.231659 359.045349,380.913574 
	C359.193726,380.842651 359.260590,380.520660 359.527100,380.380859 
	C359.942261,379.879456 360.090942,379.517853 360.166748,379.128784 
	C360.093903,379.101288 360.200348,379.214966 360.480774,379.106537 
	C361.145203,378.323242 361.529175,377.648346 362.145782,376.824982 
	C362.625122,376.193359 362.871826,375.710205 363.424072,375.072327 
	C366.951599,369.381897 370.173523,363.846161 373.241821,358.139587 
	C373.088165,357.968811 373.379242,358.323212 373.648376,358.126892 
	C375.325134,354.634888 376.732758,351.339203 378.223907,347.865784 
	C378.307434,347.688110 378.168060,347.321045 378.338928,347.131653 
	C378.623901,346.631073 378.738037,346.319855 379.033997,345.866272 
	C379.215820,345.723877 379.153015,345.266235 379.384827,345.016602 
	C380.461456,342.864532 381.306305,340.962067 382.356628,338.856567 
	C382.697052,338.100403 382.832001,337.547272 383.228943,336.765900 
	C385.034973,333.054749 386.697266,329.618744 388.101013,326.080139 
	C392.376160,315.303284 396.557617,304.489197 400.761444,293.684113 
	C401.755707,291.128540 401.767853,289.107147 398.907684,289.168732 
	C392.143188,304.707367 385.551270,319.849640 378.832367,335.061218 
	C378.705414,335.130585 378.689484,335.419464 378.406067,335.620636 
	C372.054016,344.203979 365.985413,352.586182 359.640381,361.090881 
	C358.560425,362.105377 357.756897,362.997406 356.628662,363.971954 
	C354.389191,365.822052 352.474426,367.589661 350.519348,369.411591 
	C350.479065,369.465881 350.356018,369.521820 350.045929,369.628479 
	C347.066772,371.733093 344.397705,373.731079 341.838745,375.858276 
	C341.948853,375.987549 341.750916,375.711731 341.401428,375.759888 
	C338.032867,377.536377 335.013763,379.264648 331.731934,381.009552 
	C331.325378,381.126801 331.181580,381.227417 330.673340,381.324585 
	C326.708862,382.567474 323.192841,384.453827 319.493011,384.939240 
	C308.691559,386.356323 297.816742,387.214050 286.637817,388.188354 
	C285.845337,388.119232 285.385651,388.152802 284.593781,387.996490 
	C251.409653,384.071442 230.594666,365.029114 217.999557,335.606628 
	C210.593140,318.305084 206.807953,300.088806 204.773529,281.475586 
	C200.471649,242.117233 203.222763,202.993164 209.083069,164.010239 
	C209.357956,162.181671 211.244690,160.009171 212.964569,159.094223 
	C218.084915,156.370300 223.466461,154.123032 228.815063,151.852295 
	C230.211044,151.259613 231.858978,151.260345 233.207901,151.021042 
	C231.365524,155.027206 229.423157,158.495178 228.165955,162.195923 
	C226.896027,165.934143 228.624130,168.517334 232.648544,168.714218 
	C235.086716,168.833527 237.887375,168.783844 239.966843,167.719391 
	C248.206055,163.501678 256.225128,158.853897 264.207245,154.217712 
	C264.088684,154.069870 264.292267,154.389542 264.597565,154.351776 
	C265.343933,153.914978 265.785004,153.515976 266.435486,153.098938 
	C266.930420,152.979828 267.121460,152.785751 267.566162,152.414185 
	C271.040771,149.987274 274.167236,147.644852 277.216949,145.216309 
	C277.140198,145.130203 277.239471,145.338470 277.531677,145.296906 
	C278.221527,144.843628 278.619171,144.431885 279.008423,144.010071 
	C279.000000,144.000000 279.019104,144.018326 279.345581,143.960632 
	C281.371124,142.562973 283.070221,141.222977 284.815491,139.924637 
	C284.861694,139.966293 284.932953,139.864365 285.285187,139.846680 
	C286.856750,138.814209 288.076111,137.799438 289.295441,136.784683 
	C289.785736,138.436478 289.348328,139.247345 289.125824,140.113449 
	C287.580200,146.129807 290.639313,150.044235 296.902466,149.356247 
	C300.217682,148.992096 303.396790,147.389450 306.756866,146.351059 
	C306.876373,146.356201 307.027191,146.170471 307.400757,146.159790 
	C311.936798,143.812881 316.099243,141.476639 320.473389,139.120529 
	C320.685089,139.100662 320.974274,138.788834 321.299133,138.748444 
	C323.186554,137.588226 324.749176,136.468384 326.173950,135.184372 
	C326.036163,135.020203 326.292908,135.363373 326.605774,135.329620 
	C327.728394,134.671051 328.538116,134.046249 329.197388,133.208344 
	C329.151367,133.134628 329.255859,133.274002 329.684937,133.356461 
	C330.845062,132.614838 331.680603,131.930161 332.674805,131.225952 
	C332.833435,131.206421 332.990631,130.928024 333.309723,130.890289 
	C334.753296,129.903244 335.877747,128.953934 337.001099,128.002319 
	C337.000000,128.000000 337.004761,128.002869 337.376984,127.997841 
	C339.004211,127.280113 340.259216,126.567421 341.514191,125.854729 
	C341.861206,126.209297 342.208191,126.563866 342.555176,126.918434 
	C339.536377,130.898178 337.024200,135.441025 333.376984,138.722260 
	C328.241943,143.341995 322.226471,146.974792 316.683929,151.157410 
	C315.662720,151.928040 315.099609,153.305649 314.325043,154.403107 
	C315.758148,154.595718 317.205872,155.001205 318.619141,154.904312 
	C319.525055,154.842209 320.390594,154.057526 321.256531,153.565628 
	C331.422791,147.790787 339.685059,140.022186 345.853210,130.061646 
	C346.730469,128.645020 347.627197,127.240440 347.988617,126.666336 
	C351.935913,135.582748 355.846710,144.416763 359.828308,153.181915 
	C359.899078,153.113052 359.720642,153.197800 359.760162,153.544250 
	C361.493652,156.034439 363.187653,158.178177 364.944702,160.502640 
	C365.142334,160.915512 365.336823,161.074295 365.692566,161.481506 
	C366.791321,162.689163 367.788666,163.574997 368.845032,164.645401 
	C369.056152,165.065002 369.271790,165.193100 369.688263,165.513184 
	C370.886627,166.536774 371.947632,167.261505 373.070068,168.117340 
	C373.131470,168.248459 373.417633,168.292953 373.574646,168.605957 
	C380.998901,174.266693 388.969788,177.899292 398.289062,179.038177 
	C398.862762,179.448547 399.173645,179.706635 399.341797,180.358032 
	C399.262970,181.848999 399.326843,182.946655 399.295044,184.499878 
	C399.131958,190.303085 399.064545,195.650711 398.846130,201.446045 
	C398.597839,209.282166 398.500549,216.670563 398.303528,224.367004 
	C398.267731,225.096420 398.331635,225.517822 398.250275,226.326126 
	C398.100769,227.813873 398.096558,228.914719 397.898438,230.321198 
	C397.704559,232.820374 397.704559,235.013931 397.704559,237.207489 
	C398.055450,237.244324 398.406372,237.281143 398.757263,237.317978 
	C399.398041,235.176865 400.038818,233.035751 400.834229,230.569702 
	C404.912689,220.269073 409.898224,210.956436 417.124207,202.887985 
	C419.539368,200.191284 421.793030,199.828094 424.338348,202.004822 
	C426.958496,204.245544 429.290344,206.823471 431.861084,209.165527 
	C431.973785,209.077179 431.726898,209.222336 431.742615,209.602325 
	C433.560089,216.638474 435.361816,223.294662 437.104858,230.402267 
	C437.078766,233.581375 437.111328,236.309052 436.983154,239.375534 
	C436.787476,241.498886 436.752533,243.283447 436.556702,245.370972 
	C436.368866,246.125824 436.341827,246.577698 436.122650,247.322205 
	C435.855988,248.759613 435.781494,249.904419 435.506409,251.344269 
	C435.250916,252.106140 435.196045,252.572937 434.939362,253.326813 
	C434.530396,254.761383 434.323242,255.908890 434.077942,257.072754 
	C434.039825,257.089111 434.089325,257.155640 433.875183,257.425049 
	C432.769623,260.463074 431.878204,263.231689 430.870972,266.119720 
	C430.755127,266.239105 430.799500,266.568817 430.517639,266.784119 
	C429.393677,268.918213 428.551605,270.837036 427.809998,272.892639 
	C427.910522,273.029449 427.723511,272.749268 427.442413,272.909424 
	C426.445190,274.379913 425.729065,275.690277 424.791016,277.136139 
	C424.318207,277.719025 424.067322,278.166351 423.523041,278.750610 
	C422.500580,279.933807 421.771515,280.980133 421.019897,282.014771 
	C420.997345,282.003113 421.027893,282.043945 420.709656,282.158325 
	C417.620453,284.337006 414.760590,286.296051 412.126495,288.522156 
	C411.195374,289.309082 410.160156,290.830505 410.291687,291.875702 
	C411.053131,297.926178 412.148956,303.934540 413.104126,310.346466 
	C413.297241,311.474976 413.517792,312.214203 413.647278,313.336182 
	C414.043427,316.715515 414.530701,319.712128 415.180786,323.710144 
	C416.050293,321.763794 416.443878,320.882751 416.837494,320.001740 
M273.971436,241.706238 
	C275.149536,236.860901 276.382050,232.027863 277.482269,227.164917 
	C278.015961,224.805939 279.214935,221.703949 275.599945,221.176208 
	C274.496948,221.015167 272.154175,223.756302 271.714508,225.504227 
	C267.213043,243.399048 262.953430,261.355194 258.697205,279.311066 
	C256.385986,289.061401 256.447571,289.075653 266.507019,289.070709 
	C273.659149,289.067200 280.817413,289.215942 287.957916,288.926117 
	C289.285004,288.872253 290.540588,287.055511 291.829163,286.052368 
	C290.576569,285.033417 289.462799,283.655457 288.030365,283.101440 
	C286.726990,282.597321 285.077484,282.985443 283.580536,282.985138 
	C277.341095,282.983978 271.101685,282.984650 264.195587,282.984650 
	C267.531738,268.956024 270.675262,255.737457 273.971436,241.706238 
M262.555969,325.229248 
	C266.047333,333.262085 272.631989,338.273438 279.365875,335.896179 
	C285.875916,333.597992 291.648987,329.121643 297.547577,325.296509 
	C298.286102,324.817596 297.815399,322.473938 297.904999,320.994293 
	C296.414307,320.987885 294.674622,320.489044 293.489990,321.087982 
	C291.613586,322.036682 290.161224,323.790344 288.437744,325.080963 
	C279.057953,332.104919 276.198792,331.837219 268.065247,323.445282 
	C265.803101,321.111267 263.780945,321.027618 262.555969,325.229248 
M235.185410,180.583237 
	C234.317474,181.066925 233.371277,181.450180 232.596680,182.053665 
	C230.505890,183.682541 226.657852,184.909225 228.744415,188.350906 
	C231.092529,192.223969 233.598328,188.668198 235.755585,187.360443 
	C243.179398,182.860001 247.176437,183.404999 253.372437,189.420181 
	C254.459412,190.475403 256.694244,190.348236 258.398956,190.767136 
	C258.278809,188.993134 258.779175,186.818298 257.935242,185.511841 
	C253.338745,178.396011 245.552750,176.670578 235.185410,180.583237 
M342.750763,194.305923 
	C343.584656,195.114029 344.287628,196.196060 345.280914,196.670609 
	C347.097198,197.538376 349.085114,198.046936 351.001465,198.705276 
	C350.666473,196.679337 350.992065,194.143448 349.887024,192.711945 
	C343.677948,184.668518 332.690918,184.038910 323.733826,191.241257 
	C322.380341,192.329575 322.251862,194.941376 321.556793,196.848495 
	C323.443207,196.635681 325.639008,196.969238 327.158661,196.108734 
	C331.927246,193.408554 336.547028,190.936005 342.750763,194.305923 
M408.751862,248.192139 
	C406.480988,252.625793 404.036377,256.983215 402.038574,261.536713 
	C401.387451,263.020844 401.901642,265.016266 401.882874,266.777832 
	C403.193237,265.641022 404.877930,264.736206 405.750549,263.328125 
	C410.021027,256.437195 413.908813,249.304214 418.320374,242.508987 
	C419.450439,240.768280 421.980316,239.924072 423.892242,238.707550 
	C425.174683,237.891541 426.501465,237.145248 427.808411,236.367767 
	C426.125244,235.734711 424.222870,234.276077 422.807648,234.651932 
	C420.365631,235.300476 417.822693,236.692673 416.054962,238.492599 
	C413.407654,241.188080 411.394287,244.506195 408.751862,248.192139 
M333.502350,243.559311 
	C333.614685,238.890884 333.908478,234.213867 333.688751,229.561127 
	C333.643951,228.612213 331.753052,227.227524 330.555267,227.037262 
	C329.737915,226.907425 327.850220,228.467621 327.810028,229.335602 
	C327.594543,233.988190 327.355225,238.730728 328.060333,243.297653 
	C328.430206,245.693222 330.958466,246.291016 333.502350,243.559311 
M248.432236,227.685669 
	C248.107117,225.899582 248.151947,223.919830 247.348145,222.384323 
	C246.610992,220.976105 245.093872,219.486633 243.653137,219.138260 
	C242.908157,218.958115 240.895264,221.049286 240.655838,222.337448 
	C240.062408,225.530045 239.671082,228.927048 240.163300,232.091888 
	C240.457458,233.983246 242.570663,235.591690 243.866196,237.327316 
	C245.238098,235.520432 246.759491,233.802933 247.916672,231.867661 
	C248.466217,230.948563 248.320984,229.614029 248.432236,227.685669 
z"/>
<path fill="#070266" opacity="1.000000" stroke="none" 
	d="
M436.314819,247.029587 
	C436.341827,246.577698 436.368866,246.125824 436.842621,245.209320 
	C437.240875,242.842056 437.192383,240.939392 437.143890,239.036728 
	C437.111328,236.309052 437.078766,233.581375 437.371887,230.107620 
	C437.116577,224.744843 436.895172,220.040939 435.805450,215.547623 
	C435.247009,213.244919 433.136169,211.318695 431.726898,209.222336 
	C431.726898,209.222336 431.973785,209.077179 431.939880,208.790253 
	C428.947937,198.894226 420.711426,196.395859 414.233398,203.511932 
	C410.960052,207.107727 408.959442,211.833359 405.895508,215.657272 
	C403.230499,218.983383 403.850769,224.705658 398.395538,225.939224 
	C398.331635,225.517822 398.267731,225.096420 398.661194,224.223785 
	C399.078064,216.181137 399.037598,208.589737 398.997131,200.998337 
	C399.064545,195.650711 399.131958,190.303085 399.596924,184.418243 
	C399.824524,182.575592 399.654541,181.270142 399.484558,179.964706 
	C399.173645,179.706635 398.862762,179.448547 398.204895,178.679428 
	C394.906281,177.007950 391.944122,175.873596 389.005371,174.681381 
	C383.801941,172.570450 378.612762,170.424347 373.417633,168.292953 
	C373.417633,168.292953 373.131470,168.248459 373.032898,167.752899 
	C371.806519,166.576309 370.678711,165.895294 369.550934,165.214294 
	C369.271790,165.193100 369.056152,165.065002 368.883972,164.253021 
	C367.772980,162.837265 366.682098,161.998489 365.591187,161.159698 
	C365.336823,161.074295 365.142334,160.915512 364.982147,160.118561 
	C363.211243,157.435089 361.465942,155.316452 359.720642,153.197800 
	C359.720642,153.197800 359.899078,153.113052 359.880005,152.795670 
	C356.988129,144.146301 353.839874,135.895081 351.363159,127.446991 
	C350.191467,123.450287 346.845642,122.975761 344.295898,122.697014 
	C341.096893,122.347290 337.751343,123.920883 337.004761,128.002869 
	C337.004761,128.002869 337.000000,128.000000 336.642303,127.992676 
	C335.186615,128.966248 334.088623,129.947128 332.990631,130.928024 
	C332.990631,130.928024 332.833435,131.206421 332.297791,131.168854 
	C330.961517,131.891983 330.160919,132.652695 329.360321,133.413391 
	C329.255859,133.274002 329.151367,133.134628 328.846405,133.103912 
	C327.861572,133.929520 327.077240,134.646454 326.292908,135.363373 
	C326.292908,135.363373 326.036163,135.020203 325.805664,135.085846 
	C324.041565,136.363937 322.507904,137.576385 320.974274,138.788834 
	C320.974274,138.788834 320.685089,139.100662 320.071960,139.067749 
	C315.314972,141.413376 311.171082,143.791916 307.027191,146.170471 
	C307.027191,146.170471 306.876373,146.356201 306.304779,146.251526 
	C303.851990,146.543137 301.969879,147.260971 300.089844,147.255585 
	C297.655670,147.248596 294.938263,147.234604 292.857361,146.194336 
	C289.817841,144.674850 292.072510,142.338531 292.779968,140.238388 
	C293.480408,138.159134 293.739899,135.931335 294.200653,133.731247 
	C289.375641,133.042282 286.281006,135.303757 284.932953,139.864365 
	C284.932953,139.864365 284.861694,139.966293 284.449646,139.926697 
	C282.364777,141.264175 280.691956,142.641251 279.019104,144.018326 
	C279.019104,144.018326 279.000000,144.000000 278.689331,144.016357 
	C277.998932,144.467972 277.619202,144.903214 277.239471,145.338470 
	C277.239471,145.338470 277.140198,145.130203 276.838928,145.124603 
	C273.431122,147.578903 270.324585,150.038803 267.218018,152.498688 
	C267.121460,152.785751 266.930420,152.979828 266.096130,153.078751 
	C265.128998,153.514221 264.710632,153.951889 264.292267,154.389542 
	C264.292267,154.389542 264.088684,154.069870 263.833618,154.129425 
	C259.478271,156.280304 255.451813,158.535751 251.259003,160.421310 
	C246.052856,162.762589 240.775238,164.992249 235.378326,166.828857 
	C234.024963,167.289413 231.365891,166.555313 230.638290,165.474197 
	C229.900925,164.378571 230.340012,161.925491 231.089233,160.501144 
	C233.334030,156.233612 235.982224,152.178268 239.014435,147.140549 
	C236.528259,147.267776 234.553284,146.757385 233.498566,147.519897 
	C225.338867,153.418976 214.294464,153.917465 207.133804,161.671127 
	C206.595749,162.253754 205.261475,162.101028 204.297333,162.290131 
	C203.798111,162.465668 203.298874,162.641205 202.283264,162.695282 
	C201.514893,162.776077 201.262909,162.978317 201.010925,163.180542 
	C201.010925,163.180542 200.862823,163.334747 200.310974,163.230820 
	C193.987778,164.229477 188.206833,165.286545 182.459366,166.501923 
	C181.855118,166.629730 181.448242,167.690826 180.949799,168.318939 
	C179.233398,168.538971 177.516998,168.759018 175.236862,168.684555 
	C174.132553,168.527039 173.591980,168.664017 173.051407,168.800995 
	C172.589066,168.808762 172.126724,168.816528 171.256195,168.350800 
	C165.237854,165.419983 162.431564,160.865402 161.273895,155.077652 
	C161.277573,154.605759 161.281235,154.133881 161.771011,153.225372 
	C163.058777,149.977600 163.860428,147.166458 164.662109,144.355316 
	C164.741791,144.032181 164.821472,143.709030 165.414841,143.155426 
	C166.954300,140.952911 167.980072,138.980865 169.005859,137.008804 
	C169.005859,137.008804 169.000000,137.000000 169.361816,136.943344 
	C170.073181,136.089081 170.422699,135.291489 170.772217,134.493866 
	C171.187195,133.889038 171.602173,133.284210 172.416351,132.890533 
	C172.979095,133.088089 173.142654,133.074493 173.306229,133.060898 
	C173.083435,132.947678 172.860641,132.834473 172.637848,132.721252 
	C173.550995,131.256866 174.464157,129.792496 175.916809,128.057892 
	C176.614487,127.468513 176.772659,127.149353 176.930832,126.830200 
	C178.296509,125.255974 179.662186,123.681740 181.608948,121.913940 
	C182.368958,121.375740 182.547897,121.031120 182.726837,120.686493 
	C182.726837,120.686493 182.896484,120.913940 183.078003,120.791519 
	C183.415283,120.345421 183.571045,120.021751 183.726807,119.698074 
	C183.726791,119.698074 183.924789,120.011398 184.173798,119.921257 
	C189.450623,115.446114 194.496048,111.080849 199.470367,106.636017 
	C199.840210,106.305542 199.699921,105.404190 199.796768,104.768227 
	C199.796768,104.768227 199.963379,104.962700 200.229965,104.915543 
	C202.993149,102.571884 205.489731,100.275391 207.986313,97.978897 
	C207.986313,97.978889 208.001968,97.998146 208.220428,97.879707 
	C208.599182,97.469429 208.759445,97.177582 208.919724,96.885742 
	C208.919724,96.885742 208.990036,96.985832 209.333893,96.977402 
	C211.066376,95.880478 213.770218,94.050217 213.639587,93.818596 
	C212.373825,91.574333 210.964966,88.320015 208.961151,87.798904 
	C204.063202,86.525154 198.800140,86.734863 193.737396,85.986481 
	C190.511978,85.509697 187.194077,84.792900 184.264969,83.434692 
	C181.641541,82.218224 181.077057,79.772919 183.207626,77.224426 
	C184.559784,75.607025 185.758667,73.861473 187.026306,72.173386 
	C187.026306,72.173393 187.215500,71.860703 187.763290,71.874710 
	C189.114212,71.141228 189.917358,70.393738 190.720490,69.646240 
	C190.720490,69.646240 190.940201,69.936897 191.203430,69.896667 
	C194.306320,69.251938 197.575516,69.260582 198.033401,65.256165 
	C198.033401,65.256165 198.349014,64.944817 198.926483,64.964233 
	C200.345352,64.375305 201.186768,63.766960 202.028168,63.158619 
	C202.028168,63.158619 202.317856,62.883911 202.858276,62.910454 
	C203.889038,62.546654 204.379395,62.156315 204.869736,61.765976 
	C204.869736,61.765976 204.914825,61.902256 205.248444,61.924042 
	C208.060333,60.661793 210.538620,59.377754 213.016891,58.093716 
	C213.221954,57.833019 213.483810,57.656624 214.466629,57.670547 
	C215.618744,57.715900 216.122955,57.714527 216.592255,57.585812 
	C226.054825,54.990395 235.553680,52.514862 244.950256,49.698277 
	C248.120163,48.748119 251.028595,46.925587 254.056519,45.501755 
	C254.488373,45.391026 254.920212,45.280300 256.012329,45.461540 
	C267.167786,45.753506 277.662994,45.753506 289.225464,45.753506 
	C286.405701,44.149658 284.026031,42.796131 281.646332,41.442604 
	C281.646332,41.442604 281.880524,41.100853 281.754028,40.909218 
	C279.957764,38.884991 278.277710,37.061623 276.620361,35.217838 
	C273.495392,31.741266 270.383514,28.252926 267.266174,24.769480 
	C267.655212,24.216906 268.044220,23.664331 268.433228,23.111757 
	C270.129700,23.290085 271.824127,23.491028 273.522980,23.642632 
	C279.332611,24.161074 285.143799,24.662176 290.954376,25.169893 
	C291.715363,25.214437 292.476349,25.258984 293.687561,25.793203 
	C296.744202,26.582069 299.350616,26.881262 301.957001,27.180454 
	C302.407104,27.189629 302.857208,27.198801 303.726135,27.650146 
	C306.743896,28.461845 309.342773,28.831373 311.941681,29.200901 
	C312.394440,29.203592 312.847198,29.206285 313.724548,29.648397 
	C316.420593,30.439384 318.692047,30.790951 320.963501,31.142521 
	C321.413849,31.155333 321.864166,31.168144 322.741211,31.640486 
	C332.083130,34.705601 341.008057,37.278542 349.910889,39.925781 
	C359.196991,42.686970 368.469086,45.495930 377.733002,48.330715 
	C382.823944,49.888561 387.885406,51.542618 392.960175,53.153286 
	C393.775787,53.435711 394.591400,53.718140 395.754150,54.549835 
	C397.638123,55.580879 399.174927,56.062649 400.711761,56.544426 
	C401.397034,56.798000 402.082306,57.051571 403.026794,57.871655 
	C407.651306,60.564697 412.016602,62.691231 416.381897,64.817764 
	C416.381897,64.817764 416.755188,64.862267 416.864502,65.329178 
	C417.659180,66.164062 418.344604,66.532043 419.029999,66.900024 
	C421.146179,68.243210 423.262329,69.586395 425.724609,71.447586 
	C428.661591,77.624557 432.814850,77.066566 437.394623,74.811363 
	C437.698517,74.889633 437.915527,75.071533 438.033508,75.940125 
	C439.244019,78.053131 440.466705,79.583099 441.689362,81.113068 
	C441.689362,81.113068 441.900909,81.184563 441.885803,81.666191 
	C444.513580,87.126099 447.156433,92.104378 449.799255,97.082657 
	C449.799255,97.082664 449.929321,97.069122 449.927246,97.496529 
	C451.249512,99.287964 452.573792,100.651985 453.898102,102.016006 
	C453.898102,102.016014 454.188141,102.149399 454.158661,102.697838 
	C454.231659,103.729034 454.224030,104.272820 454.452789,104.685616 
	C460.174011,115.009697 464.831177,125.718964 466.780090,137.473358 
	C467.096130,139.379288 468.016968,141.184937 468.658264,143.036926 
	C468.729584,143.488907 468.800903,143.940903 468.556702,145.043900 
	C468.396790,150.101517 468.552429,154.508133 468.708069,158.914734 
	C468.713837,159.997818 468.719604,161.080917 468.293518,162.680450 
	C467.502808,166.778595 467.143860,170.360275 466.784912,173.941971 
	C466.765015,174.400864 466.745056,174.859772 466.232605,175.729980 
	C464.805359,178.974152 463.760498,181.776184 462.956818,184.645752 
	C460.716644,192.644470 458.576416,200.671158 456.396729,208.686813 
	C456.396729,208.686813 456.386597,208.878525 455.971130,209.068832 
	C453.743958,213.627838 451.770477,217.937561 450.151794,222.376663 
	C445.872772,234.111572 441.809265,245.925522 437.456207,257.632233 
	C437.061829,258.692841 435.197510,259.206909 434.039246,259.623138 
	C434.071533,258.566193 434.080414,257.860931 434.089294,257.155640 
	C434.089325,257.155640 434.039825,257.089111 434.404694,257.007202 
	C434.893433,255.630127 435.017303,254.334946 435.141144,253.039749 
	C435.196045,252.572937 435.250916,252.106140 435.774323,251.224548 
	C436.266846,249.549713 436.290833,248.289658 436.314819,247.029587 
M221.879318,73.074165 
	C228.494858,70.063156 234.982803,66.721825 241.751587,64.107590 
	C257.483124,58.031780 273.317841,52.089970 290.415192,59.424973 
	C291.124481,59.729271 292.348022,58.834827 293.332001,58.498844 
	C292.777649,57.456089 292.445953,55.759148 291.631104,55.481792 
	C287.729736,54.153885 283.746033,52.533203 279.703705,52.243851 
	C258.557404,50.730164 240.143677,59.169621 222.192795,68.885078 
	C221.387192,69.321091 221.505493,71.464188 221.879318,73.074165 
M379.042297,119.079376 
	C380.170990,114.219780 381.407898,109.381035 382.350952,104.485680 
	C382.581512,103.288963 381.849487,101.906807 381.560028,100.609917 
	C380.523285,101.391808 378.897217,101.967995 378.541321,102.987549 
	C375.158783,112.677765 373.286530,122.635811 374.959595,132.905289 
	C376.050354,139.600388 379.138611,145.236496 385.558441,148.299545 
	C386.547974,148.771652 388.114929,148.033417 389.414856,147.854935 
	C388.820923,146.827774 388.482300,145.361832 387.592102,144.843842 
	C381.250580,141.153900 379.150970,135.259018 378.802795,128.453705 
	C378.658752,125.638298 378.875854,122.804420 379.042297,119.079376 
z"/>
<path fill="#FDFCFC" opacity="1.000000" stroke="none" 
	d="
M455.551331,407.899414 
	C447.788727,425.706207 440.047974,443.522552 432.256805,461.316833 
	C425.858490,475.929932 419.400299,490.516846 412.474701,505.462555 
	C389.289948,495.954132 366.599152,486.098480 343.505371,476.067841 
	C344.964386,474.270905 345.963989,472.979401 347.025787,471.741241 
	C360.463562,456.071686 373.879242,440.383087 387.363434,424.753571 
	C400.842590,409.129944 414.392517,393.567352 427.911407,377.977997 
	C435.981476,384.862091 444.136871,391.650208 452.062653,398.696625 
	C454.086853,400.496307 455.384033,403.113678 457.039734,405.749451 
	C456.965546,406.467896 456.767334,406.711243 456.071533,406.978638 
	C455.583557,407.152191 455.415009,407.224609 455.418213,407.288422 
	C455.428497,407.493774 455.502106,407.695984 455.551331,407.899414 
z"/>
<path fill="#FEFDFC" opacity="1.000000" stroke="none" 
	d="
M279.106628,418.555786 
	C282.898773,423.014160 286.395355,427.773163 290.552216,431.860596 
	C296.816071,438.019897 303.629456,443.615814 310.048676,449.622772 
	C318.423462,457.459564 326.632141,465.473694 334.943726,473.378479 
	C335.642273,474.042786 336.578735,474.456909 337.713440,475.347076 
	C337.906464,476.140839 337.790710,476.574799 337.481201,477.154724 
	C337.073792,477.569916 336.987732,477.875153 336.999146,478.299500 
	C336.968994,478.382599 336.939850,478.545990 336.939880,478.546021 
	C323.230377,493.657471 309.520905,508.768921 295.216583,524.536011 
	C292.126923,520.404480 289.479797,516.881226 286.849854,513.345154 
	C267.897430,487.863617 248.943924,462.382874 230.011475,436.886505 
	C229.026718,435.560333 228.231277,434.093658 227.390366,432.360382 
	C239.952988,424.896790 252.468124,417.756714 265.005951,410.656708 
	C265.687256,410.270874 266.558136,410.219666 267.878754,410.278503 
	C270.127960,412.194733 271.839172,413.845184 273.567139,415.501282 
	C273.583862,415.506927 273.597107,415.539032 273.751556,415.819214 
	C275.639557,416.918213 277.373108,417.737000 279.106628,418.555786 
z"/>
<path fill="#261969" opacity="1.000000" stroke="none" 
	d="
M273.550354,415.495605 
	C271.839172,413.845184 270.127960,412.194733 268.260986,410.260010 
	C268.669067,404.020416 269.344360,398.071625 269.690887,392.103760 
	C269.751190,391.065247 268.642181,389.261383 267.706268,388.963318 
	C233.695099,378.131500 217.421417,351.922852 207.908615,319.967438 
	C201.300430,297.769196 199.124603,274.916138 198.588226,251.855637 
	C197.896698,222.124924 200.580093,192.628052 204.442261,162.754150 
	C205.261475,162.101028 206.595749,162.253754 207.133804,161.671127 
	C214.294464,153.917465 225.338867,153.418976 233.498566,147.519897 
	C234.553284,146.757385 236.528259,147.267776 239.014435,147.140549 
	C235.982224,152.178268 233.334030,156.233612 231.089233,160.501144 
	C230.340012,161.925491 229.900925,164.378571 230.638290,165.474197 
	C231.365891,166.555313 234.024963,167.289413 235.378326,166.828857 
	C240.775238,164.992249 246.052856,162.762589 251.259003,160.421310 
	C255.451813,158.535751 259.478271,156.280304 263.952148,154.277252 
	C256.225128,158.853897 248.206055,163.501678 239.966843,167.719391 
	C237.887375,168.783844 235.086716,168.833527 232.648544,168.714218 
	C228.624130,168.517334 226.896027,165.934143 228.165955,162.195923 
	C229.423157,158.495178 231.365524,155.027206 233.207901,151.021042 
	C231.858978,151.260345 230.211044,151.259613 228.815063,151.852295 
	C223.466461,154.123032 218.084915,156.370300 212.964569,159.094223 
	C211.244690,160.009171 209.357956,162.181671 209.083069,164.010239 
	C203.222763,202.993164 200.471649,242.117233 204.773529,281.475586 
	C206.807953,300.088806 210.593140,318.305084 217.999557,335.606628 
	C230.594666,365.029114 251.409653,384.071442 284.310120,388.263428 
	C280.035736,388.720245 275.712799,388.720245 271.704071,388.720245 
	C271.223877,393.131104 270.680145,397.347748 270.328979,401.580383 
	C270.009186,405.434479 268.602234,409.580475 273.061554,412.363678 
	C273.647705,412.729553 273.407715,414.419128 273.550354,415.495605 
z"/>
<path fill="#261963" opacity="1.000000" stroke="none" 
	d="
M337.674988,477.008759 
	C337.790710,476.574799 337.906464,476.140839 338.066345,475.373230 
	C349.996765,461.372040 361.923615,447.739594 373.759399,434.028503 
	C389.959412,415.261627 406.085388,396.430847 422.262665,377.644318 
	C423.229950,376.521027 424.370300,375.546753 425.713745,374.345123 
	C426.635651,375.222473 427.273926,376.257874 427.911804,377.635620 
	C414.392517,393.567352 400.842590,409.129944 387.363434,424.753571 
	C373.879242,440.383087 360.463562,456.071686 347.025787,471.741241 
	C345.963989,472.979401 344.964386,474.270905 343.505371,476.067841 
	C366.599152,486.098480 389.289948,495.954132 412.362366,505.861542 
	C412.708527,507.098083 412.673004,508.282867 412.637482,509.467621 
	C411.067352,509.343262 409.327118,509.617584 407.953888,509.031738 
	C396.644958,504.207214 385.415100,499.197754 374.139740,494.293976 
	C361.954041,488.994232 349.745087,483.748047 337.243073,478.512238 
	C336.939850,478.545990 336.968994,478.382599 337.318909,478.287720 
	C337.670898,477.798157 337.672943,477.403473 337.674988,477.008759 
z"/>
<path fill="#26216B" opacity="1.000000" stroke="none" 
	d="
M186.701736,72.235565 
	C185.758667,73.861473 184.559784,75.607025 183.207626,77.224426 
	C181.077057,79.772919 181.641541,82.218224 184.264969,83.434692 
	C187.194077,84.792900 190.511978,85.509697 193.737396,85.986481 
	C198.800140,86.734863 204.063202,86.525154 208.961151,87.798904 
	C210.964966,88.320015 212.373825,91.574333 213.639587,93.818596 
	C213.770218,94.050217 211.066376,95.880478 209.285690,96.939743 
	C208.897675,96.308891 208.901703,95.707260 208.905731,95.105621 
	C207.948196,95.228012 206.904251,95.143906 206.045853,95.503166 
	C187.072861,103.443718 169.550446,113.335800 157.916504,131.212952 
	C157.276184,132.196884 155.641846,132.533951 154.470184,133.172119 
	C154.448486,131.724091 153.856232,129.929321 154.493042,128.881485 
	C161.128189,117.963501 170.438385,109.649918 181.302155,103.226410 
	C188.584122,98.920746 196.397095,95.512253 203.979843,91.717003 
	C205.256882,91.077835 206.571274,90.513283 207.781204,88.929642 
	C204.621094,88.706314 201.438309,88.648621 198.306305,88.219948 
	C193.866852,87.612312 189.338470,87.150833 185.076767,85.867500 
	C178.879272,84.001228 178.125870,80.228439 182.608551,75.555641 
	C183.753098,74.362564 185.115082,73.378075 186.701736,72.235565 
z"/>
<path fill="#241E6A" opacity="1.000000" stroke="none" 
	d="
M437.315308,74.466759 
	C432.814850,77.066566 428.661591,77.624557 426.020477,71.636063 
	C428.845276,71.072960 428.253906,69.931870 426.942017,68.217926 
	C418.405914,57.065941 408.356934,47.532360 396.730927,39.658195 
	C395.906006,39.099476 394.852203,38.715580 394.296906,37.961613 
	C393.539124,36.932671 393.158203,35.626202 392.615692,34.438713 
	C393.918488,34.405949 395.577545,33.839222 396.463959,34.430584 
	C400.877563,37.374996 405.609344,40.115227 409.268555,43.864761 
	C418.857513,53.690487 427.947266,64.003410 437.315308,74.466759 
z"/>
<path fill="#241E6A" opacity="1.000000" stroke="none" 
	d="
M434.015808,259.974792 
	C435.197510,259.206909 437.061829,258.692841 437.456207,257.632233 
	C441.809265,245.925522 445.872772,234.111572 450.151794,222.376663 
	C451.770477,217.937561 453.743958,213.627838 455.904175,209.137604 
	C450.068665,226.241379 443.942627,243.487793 437.684723,260.686218 
	C431.137970,278.678497 424.464569,296.624695 417.296295,314.821350 
	C415.841980,314.346832 414.937897,313.641998 414.411011,312.966705 
	C415.760925,311.865265 417.130798,310.890076 417.644684,309.579285 
	C422.698059,296.689484 427.669617,283.766418 432.490448,270.788177 
	C433.157715,268.991943 432.879883,266.844635 433.141632,264.610138 
	C433.501068,262.898529 433.758453,261.436676 434.015808,259.974792 
z"/>
<path fill="#26216B" opacity="1.000000" stroke="none" 
	d="
M392.724060,52.895378 
	C387.885406,51.542618 382.823944,49.888561 377.733002,48.330715 
	C368.469086,45.495930 359.196991,42.686970 349.910889,39.925781 
	C341.008057,37.278542 332.083130,34.705601 323.055664,31.769196 
	C346.775909,36.369217 370.028778,43.201393 392.724060,52.895378 
z"/>
<path fill="#26216B" opacity="1.000000" stroke="none" 
	d="
M290.632629,24.961573 
	C285.143799,24.662176 279.332611,24.161074 273.522980,23.642632 
	C271.824127,23.491028 270.129700,23.290085 268.433228,23.111757 
	C268.044220,23.664331 267.655212,24.216906 267.266174,24.769480 
	C270.383514,28.252926 273.495392,31.741266 276.620361,35.217838 
	C278.277710,37.061623 279.957764,38.884991 281.620544,41.067619 
	C276.787262,37.168694 271.807617,33.075516 267.231934,28.571949 
	C265.928162,27.288754 265.798035,24.813154 265.129700,22.884350 
	C266.977386,22.497709 268.885376,21.603735 270.661957,21.815052 
	C277.235077,22.596914 283.764862,23.743645 290.632629,24.961573 
z"/>
<path fill="#241E6A" opacity="1.000000" stroke="none" 
	d="
M468.749451,142.608978 
	C468.016968,141.184937 467.096130,139.379288 466.780090,137.473358 
	C464.831177,125.718964 460.174011,115.009697 454.452789,104.685616 
	C454.224030,104.272820 454.231659,103.729034 454.187500,102.854828 
	C463.361206,114.140709 467.344482,127.703911 468.749451,142.608978 
z"/>
<path fill="#26216B" opacity="1.000000" stroke="none" 
	d="
M253.662689,45.435478 
	C251.028595,46.925587 248.120163,48.748119 244.950256,49.698277 
	C235.553680,52.514862 226.054825,54.990395 216.592255,57.585812 
	C216.122955,57.714527 215.618744,57.715900 214.706223,57.657249 
	C227.277405,53.481686 240.273132,49.425438 253.662689,45.435478 
z"/>
<path fill="#26216B" opacity="1.000000" stroke="none" 
	d="
M281.927185,41.871262 
	C284.026031,42.796131 286.405701,44.149658 289.225464,45.753506 
	C277.662994,45.753506 267.167786,45.753506 256.346436,45.505394 
	C263.906006,44.939899 271.791687,44.620289 279.677612,44.307274 
	C281.019958,44.253990 283.469513,45.624763 281.927185,41.871262 
M283.490509,44.896999 
	C283.575592,44.669544 283.660675,44.442089 283.745758,44.214634 
	C283.505066,44.285557 283.264404,44.356480 283.490509,44.896999 
z"/>
<path fill="#241E6A" opacity="1.000000" stroke="none" 
	d="
M456.634064,208.411987 
	C458.576416,200.671158 460.716644,192.644470 462.956818,184.645752 
	C463.760498,181.776184 464.805359,178.974152 466.074890,176.040497 
	C463.230225,186.672180 460.050812,197.404663 456.634064,208.411987 
z"/>
<path fill="#26216B" opacity="1.000000" stroke="none" 
	d="
M199.469666,104.860817 
	C199.699921,105.404190 199.840210,106.305542 199.470367,106.636017 
	C194.496048,111.080849 189.450623,115.446114 184.064911,119.771004 
	C188.852188,114.791733 193.997375,109.872574 199.469666,104.860817 
z"/>
<path fill="#261969" opacity="1.000000" stroke="none" 
	d="
M181.340240,168.414734 
	C181.448242,167.690826 181.855118,166.629730 182.459366,166.501923 
	C188.206833,165.286545 193.987778,164.229477 200.204712,163.219040 
	C194.343781,165.044312 188.037216,166.777420 181.340240,168.414734 
z"/>
<path fill="#261969" opacity="1.000000" stroke="none" 
	d="
M161.086884,155.358246 
	C162.431564,160.865402 165.237854,165.419983 170.948822,168.179749 
	C163.522614,167.399597 160.938293,164.129440 161.086884,155.358246 
z"/>
<path fill="#241E6A" opacity="1.000000" stroke="none" 
	d="
M449.702026,96.716965 
	C447.156433,92.104378 444.513580,87.126099 441.859314,81.774658 
	C444.433563,86.384750 447.019196,91.368004 449.702026,96.716965 
z"/>
<path fill="#26216B" opacity="1.000000" stroke="none" 
	d="
M416.188904,64.534142 
	C412.016602,62.691231 407.651306,60.564697 403.196533,58.089153 
	C407.403351,59.910267 411.699646,62.080395 416.188904,64.534142 
z"/>
<path fill="#241E6A" opacity="1.000000" stroke="none" 
	d="
M468.894348,158.566254 
	C468.552429,154.508133 468.396790,150.101517 468.501007,145.385345 
	C468.867462,149.456451 468.974030,153.837112 468.894348,158.566254 
z"/>
<path fill="#2B196A" opacity="1.000000" stroke="none" 
	d="
M414.033813,312.937195 
	C414.937897,313.641998 415.841980,314.346832 417.110016,315.103912 
	C417.239044,316.498444 417.004150,317.840729 416.803345,319.592346 
	C416.443878,320.882751 416.050293,321.763794 415.180786,323.710144 
	C414.530701,319.712128 414.043427,316.715515 413.719513,313.302856 
	C413.882843,312.886871 414.033813,312.937195 414.033813,312.937195 
z"/>
<path fill="#241E6A" opacity="1.000000" stroke="none" 
	d="
M466.996033,173.625275 
	C467.143860,170.360275 467.502808,166.778595 468.191040,163.076019 
	C468.082672,166.406296 467.644928,169.857437 466.996033,173.625275 
z"/>
<path fill="#26216B" opacity="1.000000" stroke="none" 
	d="
M207.671509,98.101639 
	C205.489731,100.275391 202.993149,102.571884 200.133591,104.831238 
	C202.299332,102.604195 204.828018,100.414291 207.671509,98.101639 
z"/>
<path fill="#26216B" opacity="1.000000" stroke="none" 
	d="
M197.694092,65.282341 
	C197.575516,69.260582 194.306320,69.251938 191.078979,69.763626 
	C192.912460,68.216728 195.133636,66.762627 197.694092,65.282341 
z"/>
<path fill="#26216B" opacity="1.000000" stroke="none" 
	d="
M301.656128,26.969757 
	C299.350616,26.881262 296.744202,26.582069 294.033142,25.958244 
	C296.404022,26.008760 298.879639,26.383911 301.656128,26.969757 
z"/>
<path fill="#261969" opacity="1.000000" stroke="none" 
	d="
M164.387344,144.582581 
	C163.860428,147.166458 163.058777,149.977600 161.958771,152.921295 
	C162.477798,150.305847 163.295197,147.557861 164.387344,144.582581 
z"/>
<path fill="#26216B" opacity="1.000000" stroke="none" 
	d="
M311.643127,28.986828 
	C309.342773,28.831373 306.743896,28.461845 304.046051,27.765669 
	C306.412933,27.883600 308.878754,28.328178 311.643127,28.986828 
z"/>
<path fill="#26216B" opacity="1.000000" stroke="none" 
	d="
M212.653519,58.089272 
	C210.538620,59.377754 208.060333,60.661793 205.195389,61.875702 
	C207.302521,60.565323 209.796341,59.325073 212.653519,58.089272 
z"/>
<path fill="#261969" opacity="1.000000" stroke="none" 
	d="
M168.714722,137.159027 
	C167.980072,138.980865 166.954300,140.952911 165.592407,142.974518 
	C166.312057,141.119141 167.367813,139.214188 168.714722,137.159027 
z"/>
<path fill="#26216B" opacity="1.000000" stroke="none" 
	d="
M320.693420,30.904497 
	C318.692047,30.790951 316.420593,30.439384 314.045105,29.767807 
	C316.101807,29.854025 318.262573,30.260250 320.693420,30.904497 
z"/>
<path fill="#241E6A" opacity="1.000000" stroke="none" 
	d="
M453.837280,101.699326 
	C452.573792,100.651985 451.249512,99.287964 449.918915,97.561371 
	C451.200592,98.593414 452.488556,99.988029 453.837280,101.699326 
z"/>
<path fill="#241E6A" opacity="1.000000" stroke="none" 
	d="
M441.661499,80.789307 
	C440.466705,79.583099 439.244019,78.053131 438.062744,76.156509 
	C439.280609,77.348419 440.457092,78.906982 441.661499,80.789307 
z"/>
<path fill="#26216B" opacity="1.000000" stroke="none" 
	d="
M400.473267,56.309353 
	C399.174927,56.062649 397.638123,55.580879 396.023071,54.738033 
	C397.374817,54.942734 398.804779,55.508511 400.473267,56.309353 
z"/>
<path fill="#26216B" opacity="1.000000" stroke="none" 
	d="
M418.954132,66.614792 
	C418.344604,66.532043 417.659180,66.164062 416.976685,65.479988 
	C417.612488,65.552444 418.245361,65.940994 418.954132,66.614792 
z"/>
<path fill="#26216B" opacity="1.000000" stroke="none" 
	d="
M190.396332,69.703308 
	C189.917358,70.393738 189.114212,71.141228 187.942841,71.840706 
	C188.407104,71.115257 189.239639,70.437820 190.396332,69.703308 
z"/>
<path fill="#26216B" opacity="1.000000" stroke="none" 
	d="
M201.707626,63.148312 
	C201.186768,63.766960 200.345352,64.375305 199.146515,64.937256 
	C199.655060,64.306572 200.521072,63.722290 201.707626,63.148312 
z"/>
<path fill="#261969" opacity="1.000000" stroke="none" 
	d="
M173.211594,168.936890 
	C173.591980,168.664017 174.132553,168.527039 174.806091,168.598053 
	C174.416626,168.894958 173.894211,168.983871 173.211594,168.936890 
z"/>
<path fill="#261969" opacity="1.000000" stroke="none" 
	d="
M170.488983,134.645477 
	C170.422699,135.291489 170.073181,136.089081 169.366104,136.945908 
	C169.407623,136.269104 169.806686,135.533081 170.488983,134.645477 
z"/>
<path fill="#26216B" opacity="1.000000" stroke="none" 
	d="
M204.549744,61.778492 
	C204.379395,62.156315 203.889038,62.546654 203.057587,62.899361 
	C203.220886,62.504822 203.725311,62.147911 204.549744,61.778492 
z"/>
<path fill="#261969" opacity="1.000000" stroke="none" 
	d="
M201.286743,163.196411 
	C201.262909,162.978317 201.514893,162.776077 201.887909,162.730240 
	C201.860168,162.995193 201.711365,163.103745 201.286743,163.196411 
z"/>
<path fill="#26216B" opacity="1.000000" stroke="none" 
	d="
M176.666016,126.919998 
	C176.772659,127.149353 176.614487,127.468513 176.197693,127.884697 
	C176.093124,127.657745 176.247162,127.333778 176.666016,126.919998 
z"/>
<path fill="#26216B" opacity="1.000000" stroke="none" 
	d="
M182.449249,120.771835 
	C182.547897,121.031120 182.368958,121.375740 181.886932,121.770454 
	C181.779770,121.499428 181.975708,121.178299 182.449249,120.771835 
z"/>
<path fill="#26216B" opacity="1.000000" stroke="none" 
	d="
M183.465790,119.760765 
	C183.571045,120.021751 183.415283,120.345421 182.973877,120.695152 
	C182.860413,120.421959 183.032608,120.122704 183.465790,119.760765 
z"/>
<path fill="#26216B" opacity="1.000000" stroke="none" 
	d="
M208.659088,96.962479 
	C208.759445,97.177582 208.599182,97.469429 208.209473,97.875648 
	C208.119507,97.673096 208.258972,97.356155 208.659088,96.962479 
z"/>
<path fill="#F7C6DD" opacity="1.000000" stroke="none" 
	d="
M305.692688,612.490356 
	C304.242828,624.620483 302.121124,636.572327 300.790314,648.611633 
	C300.233612,653.647949 301.386536,658.867920 301.696747,664.008362 
	C301.794861,665.634460 302.047974,667.381470 301.604187,668.888794 
	C298.900513,678.072449 292.363892,679.753662 285.325439,673.119934 
	C280.112518,668.206726 278.495056,661.703064 278.360962,654.952698 
	C278.092407,641.431458 279.320435,628.046326 283.662689,615.103760 
	C285.422272,609.859131 288.144318,605.479858 293.829468,603.169312 
	C297.784393,606.025757 301.562256,609.186584 305.692688,612.490356 
z"/>
<path fill="#F5C5DD" opacity="1.000000" stroke="none" 
	d="
M279.750946,610.369568 
	C278.123566,622.789001 275.571533,635.001038 274.420868,647.343689 
	C273.821106,653.776855 275.310394,660.514771 276.574432,666.974426 
	C277.467377,671.537659 276.127747,676.393311 272.138977,678.373779 
	C268.421417,680.219482 262.500854,679.074219 260.957886,674.817200 
	C258.574127,668.240662 256.048828,660.999634 256.537109,654.254272 
	C257.416901,642.100342 260.120819,630.022522 262.827820,618.086365 
	C263.812134,613.746094 266.982269,609.901611 269.213135,605.471924 
	C274.148987,603.836731 276.135406,608.303467 279.750946,610.369568 
z"/>
<path fill="#F5C5DD" opacity="1.000000" stroke="none" 
	d="
M257.636749,616.285095 
	C256.843018,621.516968 255.260040,626.492126 254.761734,631.573730 
	C253.743439,641.958496 253.472809,652.415771 252.505051,662.806946 
	C252.292007,665.094482 250.939102,667.892639 249.178314,669.174255 
	C248.214615,669.875793 244.719513,668.453369 243.360260,667.035461 
	C235.248642,658.573792 233.128387,648.245117 235.122223,636.970520 
	C236.697617,628.062134 239.155136,619.451782 244.910782,612.147217 
	C245.460342,611.449768 245.473465,610.329712 245.675232,609.120117 
	C251.914658,607.376343 253.701004,613.224792 257.636749,616.285095 
z"/>
<path fill="#442546" opacity="1.000000" stroke="none" 
	d="
M319.430420,604.077332 
	C317.949463,603.686890 316.297699,602.567200 315.721741,602.973389 
	C313.251678,604.715088 311.098267,606.905945 308.495056,608.968933 
	C310.579437,606.255676 312.749542,603.197571 315.560272,600.935547 
	C316.467010,600.205750 319.058441,601.569214 320.974792,602.300781 
	C320.631805,603.101013 320.193176,603.575623 319.430420,604.077332 
z"/>
<path fill="#E7E6E7" opacity="1.000000" stroke="none" 
	d="
M455.747467,407.723694 
	C455.502106,407.695984 455.428497,407.493774 455.418213,407.288422 
	C455.415009,407.224609 455.583557,407.152191 455.843445,407.054810 
	C455.990143,407.199951 455.966888,407.373962 455.747467,407.723694 
z"/>
<path fill="#050165" opacity="1.000000" stroke="none" 
	d="
M273.567108,415.501282 
	C273.407715,414.419128 273.647705,412.729553 273.061554,412.363678 
	C268.602234,409.580475 270.009186,405.434479 270.328979,401.580383 
	C270.680145,397.347748 271.223877,393.131104 271.704071,388.720245 
	C275.712799,388.720245 280.035736,388.720245 284.642334,388.453308 
	C285.385651,388.152802 285.845337,388.119232 286.760559,388.558411 
	C287.612946,389.308533 288.003784,389.818970 288.407562,389.829468 
	C300.156738,390.134491 311.925354,390.447144 322.998016,385.479492 
	C325.745728,384.246735 328.361420,382.719727 331.037781,381.328003 
	C331.181580,381.227417 331.325378,381.126801 332.127960,381.040527 
	C335.937775,379.547241 340.615082,380.600281 341.750916,375.711731 
	C341.750916,375.711731 341.948853,375.987549 342.214081,375.925232 
	C345.157928,373.815094 350.233673,374.744934 350.356018,369.521820 
	C350.356018,369.521820 350.479065,369.465881 350.873169,369.570984 
	C354.078979,368.647614 357.225647,367.948303 356.953369,363.889465 
	C357.756897,362.997406 358.560425,362.105377 359.991638,361.082947 
	C365.119141,355.840302 369.532990,350.647736 374.181091,345.674011 
	C375.301880,344.474701 377.197937,343.999908 378.788361,343.540894 
	C378.943817,344.348663 379.048431,344.807465 379.153015,345.266235 
	C379.153015,345.266235 379.215820,345.723877 378.781982,345.990265 
	C378.288116,346.611450 378.228088,346.966248 378.168060,347.321045 
	C378.168060,347.321045 378.307434,347.688110 377.848145,347.897583 
	C376.052307,351.512451 374.715759,354.917816 373.379242,358.323212 
	C373.379242,358.323212 373.088165,357.968811 372.888550,358.154663 
	C367.861420,363.041351 364.227692,368.418823 363.118500,375.227051 
	C362.871826,375.710205 362.625122,376.193359 361.815735,376.871704 
	C360.902130,377.782959 360.551239,378.498962 360.200348,379.214966 
	C360.200348,379.214966 360.093903,379.101288 359.864838,379.232361 
	C359.510712,379.749176 359.385651,380.134918 359.260590,380.520660 
	C359.260590,380.520660 359.193726,380.842651 358.665955,380.909363 
	C353.781830,381.335602 353.948944,385.060791 352.964630,387.929260 
	C352.964630,387.929260 352.994446,387.993713 352.593628,387.978485 
	C350.798431,389.650055 349.404083,391.336853 348.009705,393.023621 
	C347.815857,393.289276 347.621979,393.554901 346.871521,393.922943 
	C346.021454,394.498505 345.727936,394.971619 345.434418,395.444763 
	C345.434418,395.444763 345.142700,395.213043 344.918640,395.228241 
	C343.121216,396.809143 341.547852,398.374847 339.974487,399.940552 
	C339.592468,400.300934 339.210480,400.661346 338.181183,401.057800 
	C332.169830,403.932983 326.797485,406.756866 321.462830,409.650177 
	C321.153046,409.818176 321.148499,410.548950 321.001892,411.017792 
	C320.811066,411.281158 320.559143,411.457092 319.586823,411.398926 
	C313.644562,412.984650 308.361633,414.716980 303.078674,416.449341 
	C302.627319,416.621399 302.175964,416.793457 301.051575,416.665680 
	C291.451385,416.090240 282.524261,415.814636 273.597107,415.539032 
	C273.597107,415.539032 273.583862,415.506927 273.567108,415.501282 
z"/>
<path fill="#1C1067" opacity="1.000000" stroke="none" 
	d="
M273.895081,242.112549 
	C270.675262,255.737457 267.531738,268.956024 264.195587,282.984650 
	C271.101685,282.984650 277.341095,282.983978 283.580536,282.985138 
	C285.077484,282.985443 286.726990,282.597321 288.030365,283.101440 
	C289.462799,283.655457 290.576569,285.033417 291.829163,286.052368 
	C290.540588,287.055511 289.285004,288.872253 287.957916,288.926117 
	C280.817413,289.215942 273.659149,289.067200 266.507019,289.070709 
	C256.447571,289.075653 256.385986,289.061401 258.697205,279.311066 
	C262.953430,261.355194 267.213043,243.399048 271.714508,225.504227 
	C272.154175,223.756302 274.496948,221.015167 275.599945,221.176208 
	C279.214935,221.703949 278.015961,224.805939 277.482269,227.164917 
	C276.382050,232.027863 275.149536,236.860901 273.895081,242.112549 
z"/>
<path fill="#2B196A" opacity="1.000000" stroke="none" 
	d="
M337.376984,127.997841 
	C337.751343,123.920883 341.096893,122.347290 344.295898,122.697014 
	C346.845642,122.975761 350.191467,123.450287 351.363159,127.446991 
	C353.839874,135.895081 356.988129,144.146301 359.809204,152.864532 
	C355.846710,144.416763 351.935913,135.582748 347.988617,126.666336 
	C347.627197,127.240440 346.730469,128.645020 345.853210,130.061646 
	C339.685059,140.022186 331.422791,147.790787 321.256531,153.565628 
	C320.390594,154.057526 319.525055,154.842209 318.619141,154.904312 
	C317.205872,155.001205 315.758148,154.595718 314.325043,154.403107 
	C315.099609,153.305649 315.662720,151.928040 316.683929,151.157410 
	C322.226471,146.974792 328.241943,143.341995 333.376984,138.722260 
	C337.024200,135.441025 339.536377,130.898178 342.555176,126.918434 
	C342.208191,126.563866 341.861206,126.209297 341.514191,125.854729 
	C340.259216,126.567421 339.004211,127.280113 337.376984,127.997841 
z"/>
<path fill="#070266" opacity="1.000000" stroke="none" 
	d="
M414.411011,312.966705 
	C414.033813,312.937195 413.882843,312.886871 413.810608,312.920166 
	C413.517792,312.214203 413.297241,311.474976 413.372437,310.045837 
	C413.258148,305.191437 413.012573,301.002075 412.386444,296.870361 
	C411.878296,293.517212 411.222687,290.726166 415.237762,288.594543 
	C417.647797,287.315063 419.129181,284.286469 421.027893,282.043945 
	C421.027893,282.043945 420.997345,282.003113 421.379822,281.978394 
	C422.446991,280.840363 423.131714,279.727020 423.816406,278.613708 
	C424.067322,278.166351 424.318207,277.719025 425.157471,277.102020 
	C426.405029,275.537994 427.064270,274.143646 427.723511,272.749268 
	C427.723511,272.749268 427.910522,273.029449 428.196594,272.911316 
	C429.254913,270.718384 430.027222,268.643585 430.799500,266.568817 
	C430.799500,266.568817 430.755127,266.239105 431.182922,266.097870 
	C432.086975,265.591034 432.563263,265.225464 433.039551,264.859863 
	C432.879883,266.844635 433.157715,268.991943 432.490448,270.788177 
	C427.669617,283.766418 422.698059,296.689484 417.644684,309.579285 
	C417.130798,310.890076 415.760925,311.865265 414.411011,312.966705 
z"/>
<path fill="#1D0F65" opacity="1.000000" stroke="none" 
	d="
M262.550720,324.870056 
	C263.780945,321.027618 265.803101,321.111267 268.065247,323.445282 
	C276.198792,331.837219 279.057953,332.104919 288.437744,325.080963 
	C290.161224,323.790344 291.613586,322.036682 293.489990,321.087982 
	C294.674622,320.489044 296.414307,320.987885 297.904968,320.994293 
	C297.815399,322.473938 298.286102,324.817596 297.547577,325.296509 
	C291.648987,329.121643 285.875916,333.597992 279.365875,335.896179 
	C272.631989,338.273438 266.047333,333.262085 262.550720,324.870056 
z"/>
<path fill="#2A1869" opacity="1.000000" stroke="none" 
	d="
M378.959320,334.991882 
	C385.551270,319.849640 392.143188,304.707367 398.907684,289.168732 
	C401.767853,289.107147 401.755707,291.128540 400.761444,293.684113 
	C396.557617,304.489197 392.376160,315.303284 388.101013,326.080139 
	C386.697266,329.618744 385.034973,333.054749 382.953491,336.566406 
	C381.263794,336.060730 380.111572,335.526306 378.959320,334.991882 
z"/>
<path fill="#1F1167" opacity="1.000000" stroke="none" 
	d="
M235.527954,180.415070 
	C245.552750,176.670578 253.338745,178.396011 257.935242,185.511841 
	C258.779175,186.818298 258.278809,188.993134 258.398956,190.767136 
	C256.694244,190.348236 254.459412,190.475403 253.372437,189.420181 
	C247.176437,183.404999 243.179398,182.860001 235.755585,187.360443 
	C233.598328,188.668198 231.092529,192.223969 228.744415,188.350906 
	C226.657852,184.909225 230.505890,183.682541 232.596680,182.053665 
	C233.371277,181.450180 234.317474,181.066925 235.527954,180.415070 
z"/>
<path fill="#201167" opacity="1.000000" stroke="none" 
	d="
M342.418121,194.096603 
	C336.547028,190.936005 331.927246,193.408554 327.158661,196.108734 
	C325.639008,196.969238 323.443207,196.635681 321.556763,196.848480 
	C322.251862,194.941376 322.380341,192.329575 323.733826,191.241257 
	C332.690918,184.038910 343.677948,184.668518 349.887024,192.711945 
	C350.992065,194.143448 350.666473,196.679337 351.001465,198.705276 
	C349.085114,198.046936 347.097198,197.538376 345.280914,196.670609 
	C344.287628,196.196060 343.584656,195.114029 342.418121,194.096603 
z"/>
<path fill="#2C1A69" opacity="1.000000" stroke="none" 
	d="
M408.931580,247.875824 
	C411.394287,244.506195 413.407654,241.188080 416.054962,238.492599 
	C417.822693,236.692673 420.365631,235.300476 422.807648,234.651932 
	C424.222870,234.276077 426.125244,235.734711 427.808411,236.367767 
	C426.501465,237.145248 425.174683,237.891541 423.892242,238.707550 
	C421.980316,239.924072 419.450439,240.768280 418.320374,242.508987 
	C413.908813,249.304214 410.021027,256.437195 405.750549,263.328125 
	C404.877930,264.736206 403.193237,265.641022 401.882874,266.777832 
	C401.901642,265.016266 401.387451,263.020844 402.038574,261.536713 
	C404.036377,256.983215 406.480988,252.625793 408.931580,247.875824 
z"/>
<path fill="#1C1067" opacity="1.000000" stroke="none" 
	d="
M333.292694,243.863724 
	C330.958466,246.291016 328.430206,245.693222 328.060333,243.297653 
	C327.355225,238.730728 327.594543,233.988190 327.810028,229.335602 
	C327.850220,228.467621 329.737915,226.907425 330.555267,227.037262 
	C331.753052,227.227524 333.643951,228.612213 333.688751,229.561127 
	C333.908478,234.213867 333.614685,238.890884 333.292694,243.863724 
z"/>
<path fill="#1D0E66" opacity="1.000000" stroke="none" 
	d="
M248.461365,228.076691 
	C248.320984,229.614029 248.466217,230.948563 247.916672,231.867661 
	C246.759491,233.802933 245.238098,235.520432 243.866196,237.327316 
	C242.570663,235.591690 240.457458,233.983246 240.163300,232.091888 
	C239.671082,228.927048 240.062408,225.530045 240.655838,222.337448 
	C240.895264,221.049286 242.908157,218.958115 243.653137,219.138260 
	C245.093872,219.486633 246.610992,220.976105 247.348145,222.384323 
	C248.151947,223.919830 248.107117,225.899582 248.461365,228.076691 
z"/>
<path fill="#2B196A" opacity="1.000000" stroke="none" 
	d="
M398.250275,226.326126 
	C403.850769,224.705658 403.230499,218.983383 405.895508,215.657272 
	C408.959442,211.833359 410.960052,207.107727 414.233398,203.511932 
	C420.711426,196.395859 428.947937,198.894226 431.827148,208.878601 
	C429.290344,206.823471 426.958496,204.245544 424.338348,202.004822 
	C421.793030,199.828094 419.539368,200.191284 417.124207,202.887985 
	C409.898224,210.956436 404.912689,220.269073 400.547974,230.579803 
	C399.435486,230.615082 398.763885,230.315323 398.092346,230.015564 
	C398.096558,228.914719 398.100769,227.813873 398.250275,226.326126 
z"/>
<path fill="#2B196A" opacity="1.000000" stroke="none" 
	d="
M285.285187,139.846680 
	C286.281006,135.303757 289.375641,133.042282 294.200653,133.731247 
	C293.739899,135.931335 293.480408,138.159134 292.779968,140.238388 
	C292.072510,142.338531 289.817841,144.674850 292.857361,146.194336 
	C294.938263,147.234604 297.655670,147.248596 300.089844,147.255585 
	C301.969879,147.260971 303.851990,146.543137 306.185272,146.246399 
	C303.396790,147.389450 300.217682,148.992096 296.902466,149.356247 
	C290.639313,150.044235 287.580200,146.129807 289.125824,140.113449 
	C289.348328,139.247345 289.785736,138.436478 289.295441,136.784683 
	C288.076111,137.799438 286.856750,138.814209 285.285187,139.846680 
z"/>
<path fill="#261969" opacity="1.000000" stroke="none" 
	d="
M330.673340,381.324585 
	C328.361420,382.719727 325.745728,384.246735 322.998016,385.479492 
	C311.925354,390.447144 300.156738,390.134491 288.407562,389.829468 
	C288.003784,389.818970 287.612946,389.308533 287.093384,388.661102 
	C297.816742,387.214050 308.691559,386.356323 319.493011,384.939240 
	C323.192841,384.453827 326.708862,382.567474 330.673340,381.324585 
z"/>
<path fill="#2A1869" opacity="1.000000" stroke="none" 
	d="
M378.737488,343.191925 
	C377.197937,343.999908 375.301880,344.474701 374.181091,345.674011 
	C369.532990,350.647736 365.119141,355.840302 360.268066,360.960449 
	C365.985413,352.586182 372.054016,344.203979 378.484314,335.989197 
	C379.230621,337.754364 379.615234,339.352112 379.875977,341.246338 
	C379.413849,342.092499 379.075684,342.642212 378.737488,343.191925 
z"/>
<path fill="#2B196A" opacity="1.000000" stroke="none" 
	d="
M420.709656,282.158325 
	C419.129181,284.286469 417.647797,287.315063 415.237762,288.594543 
	C411.222687,290.726166 411.878296,293.517212 412.386444,296.870361 
	C413.012573,301.002075 413.258148,305.191437 413.399902,309.656555 
	C412.148956,303.934540 411.053131,297.926178 410.291687,291.875702 
	C410.160156,290.830505 411.195374,289.309082 412.126495,288.522156 
	C414.760590,286.296051 417.620453,284.337006 420.709656,282.158325 
z"/>
<path fill="#261969" opacity="1.000000" stroke="none" 
	d="
M273.751556,415.819214 
	C282.524261,415.814636 291.451385,416.090240 300.684998,416.634125 
	C293.991333,417.374756 286.991150,417.847107 279.548828,418.437622 
	C277.373108,417.737000 275.639557,416.918213 273.751556,415.819214 
z"/>
<path fill="#2B196A" opacity="1.000000" stroke="none" 
	d="
M373.574646,168.605957 
	C378.612762,170.424347 383.801941,172.570450 389.005371,174.681381 
	C391.944122,175.873596 394.906281,177.007950 397.942078,178.527130 
	C388.969788,177.899292 380.998901,174.266693 373.574646,168.605957 
z"/>
<path fill="#2B196A" opacity="1.000000" stroke="none" 
	d="
M431.742615,209.602325 
	C433.136169,211.318695 435.247009,213.244919 435.805450,215.547623 
	C436.895172,220.040939 437.116577,224.744843 437.430542,229.656189 
	C435.361816,223.294662 433.560089,216.638474 431.742615,209.602325 
z"/>
<path fill="#2D1A6A" opacity="1.000000" stroke="none" 
	d="
M363.424072,375.072327 
	C364.227692,368.418823 367.861420,363.041351 373.042175,358.325439 
	C370.173523,363.846161 366.951599,369.381897 363.424072,375.072327 
z"/>
<path fill="#261969" opacity="1.000000" stroke="none" 
	d="
M321.374023,411.022797 
	C321.148499,410.548950 321.153046,409.818176 321.462830,409.650177 
	C326.797485,406.756866 332.169830,403.932983 337.918427,401.114319 
	C332.784027,404.432465 327.265076,407.730133 321.374023,411.022797 
z"/>
<path fill="#261969" opacity="1.000000" stroke="none" 
	d="
M303.452515,416.512817 
	C308.361633,414.716980 313.644562,412.984650 319.352753,411.404144 
	C314.460785,413.229401 309.143585,414.902832 303.452515,416.512817 
z"/>
<path fill="#2B196A" opacity="1.000000" stroke="none" 
	d="
M307.400757,146.159790 
	C311.171082,143.791916 315.314972,141.413376 319.860291,139.087616 
	C316.099243,141.476639 311.936798,143.812881 307.400757,146.159790 
z"/>
<path fill="#2B196A" opacity="1.000000" stroke="none" 
	d="
M398.846130,201.446045 
	C399.037598,208.589737 399.078064,216.181137 398.760895,223.915756 
	C398.500549,216.670563 398.597839,209.282166 398.846130,201.446045 
z"/>
<path fill="#261969" opacity="1.000000" stroke="none" 
	d="
M267.566162,152.414185 
	C270.324585,150.038803 273.431122,147.578903 276.915680,145.210724 
	C274.167236,147.644852 271.040771,149.987274 267.566162,152.414185 
z"/>
<path fill="#2D1A6A" opacity="1.000000" stroke="none" 
	d="
M373.648376,358.126892 
	C374.715759,354.917816 376.052307,351.512451 377.764618,348.075256 
	C376.732758,351.339203 375.325134,354.634888 373.648376,358.126892 
z"/>
<path fill="#694986" opacity="1.000000" stroke="none" 
	d="
M397.898438,230.321198 
	C398.763885,230.315323 399.435486,230.615082 400.393311,230.904755 
	C400.038818,233.035751 399.398041,235.176865 398.757263,237.317978 
	C398.406372,237.281143 398.055450,237.244324 397.704559,237.207489 
	C397.704559,235.013931 397.704559,232.820374 397.898438,230.321198 
z"/>
<path fill="#2A1869" opacity="1.000000" stroke="none" 
	d="
M350.045929,369.628479 
	C350.233673,374.744934 345.157928,373.815094 342.103973,375.795959 
	C344.397705,373.731079 347.066772,371.733093 350.045929,369.628479 
z"/>
<path fill="#050165" opacity="1.000000" stroke="none" 
	d="
M379.999878,340.949890 
	C379.615234,339.352112 379.230621,337.754364 378.767731,335.788025 
	C378.689484,335.419464 378.705414,335.130585 378.832367,335.061218 
	C380.111572,335.526306 381.263794,336.060730 382.691498,336.794617 
	C382.832001,337.547272 382.697052,338.100403 382.080750,338.959167 
	C381.066193,339.826477 380.533020,340.388184 379.999878,340.949890 
z"/>
<path fill="#261969" opacity="1.000000" stroke="none" 
	d="
M341.401428,375.759888 
	C340.615082,380.600281 335.937775,379.547241 332.390686,381.023926 
	C335.013763,379.264648 338.032867,377.536377 341.401428,375.759888 
z"/>
<path fill="#261969" opacity="1.000000" stroke="none" 
	d="
M353.279816,387.827637 
	C353.948944,385.060791 353.781830,381.335602 358.517578,380.980286 
	C357.129639,383.231659 355.362335,385.478851 353.279816,387.827637 
z"/>
<path fill="#2A1869" opacity="1.000000" stroke="none" 
	d="
M356.628662,363.971924 
	C357.225647,367.948303 354.078979,368.647614 350.913452,369.516693 
	C352.474426,367.589661 354.389191,365.822052 356.628662,363.971924 
z"/>
<path fill="#2B196A" opacity="1.000000" stroke="none" 
	d="
M359.760162,153.544250 
	C361.465942,155.316452 363.211243,157.435089 364.919098,159.937836 
	C363.187653,158.178177 361.493652,156.034439 359.760162,153.544250 
z"/>
<path fill="#261969" opacity="1.000000" stroke="none" 
	d="
M348.330200,392.953491 
	C349.404083,391.336853 350.798431,389.650055 352.561249,387.963928 
	C351.503357,389.604156 350.076996,391.243744 348.330200,392.953491 
z"/>
<path fill="#2B196A" opacity="1.000000" stroke="none" 
	d="
M433.141632,264.610138 
	C432.563263,265.225464 432.086975,265.591034 431.298767,265.978485 
	C431.878204,263.231689 432.769623,260.463074 433.875183,257.425049 
	C434.080414,257.860931 434.071533,258.566193 434.039246,259.623138 
	C433.758453,261.436676 433.501068,262.898529 433.141632,264.610138 
z"/>
<path fill="#261969" opacity="1.000000" stroke="none" 
	d="
M340.298279,399.882507 
	C341.547852,398.374847 343.121216,396.809143 345.046722,395.363464 
	C343.806610,396.930511 342.214325,398.377472 340.298279,399.882507 
z"/>
<path fill="#2B196A" opacity="1.000000" stroke="none" 
	d="
M430.517639,266.784119 
	C430.027222,268.643585 429.254913,270.718384 428.096069,272.774506 
	C428.551605,270.837036 429.393677,268.918213 430.517639,266.784119 
z"/>
<path fill="#2B196A" opacity="1.000000" stroke="none" 
	d="
M321.299133,138.748444 
	C322.507904,137.576385 324.041565,136.363937 325.943481,135.250031 
	C324.749176,136.468384 323.186554,137.588226 321.299133,138.748444 
z"/>
<path fill="#261969" opacity="1.000000" stroke="none" 
	d="
M279.345581,143.960632 
	C280.691956,142.641251 282.364777,141.264175 284.403473,139.885040 
	C283.070221,141.222977 281.371124,142.562973 279.345581,143.960632 
z"/>
<path fill="#2B196A" opacity="1.000000" stroke="none" 
	d="
M436.983154,239.375534 
	C437.192383,240.939392 437.240875,242.842056 437.003479,244.906357 
	C436.752533,243.283447 436.787476,241.498886 436.983154,239.375534 
z"/>
<path fill="#2D1A6A" opacity="1.000000" stroke="none" 
	d="
M379.875977,341.246338 
	C380.533020,340.388184 381.066193,339.826477 381.875244,339.162170 
	C381.306305,340.962067 380.461456,342.864532 379.384827,345.016602 
	C379.048431,344.807465 378.943817,344.348663 378.788391,343.540894 
	C379.075684,342.642212 379.413849,342.092499 379.875977,341.246338 
z"/>
<path fill="#2B196A" opacity="1.000000" stroke="none" 
	d="
M399.341797,180.358032 
	C399.654541,181.270142 399.824524,182.575592 399.692627,183.962677 
	C399.326843,182.946655 399.262970,181.848999 399.341797,180.358032 
z"/>
<path fill="#2B196A" opacity="1.000000" stroke="none" 
	d="
M434.939362,253.326813 
	C435.017303,254.334946 434.893433,255.630127 434.442810,256.990845 
	C434.323242,255.908890 434.530396,254.761383 434.939362,253.326813 
z"/>
<path fill="#2B196A" opacity="1.000000" stroke="none" 
	d="
M333.309723,130.890289 
	C334.088623,129.947128 335.186615,128.966248 336.643433,127.994987 
	C335.877747,128.953934 334.753296,129.903244 333.309723,130.890289 
z"/>
<path fill="#2B196A" opacity="1.000000" stroke="none" 
	d="
M427.442413,272.909424 
	C427.064270,274.143646 426.405029,275.537994 425.379364,276.966492 
	C425.729065,275.690277 426.445190,274.379913 427.442413,272.909424 
z"/>
<path fill="#2B196A" opacity="1.000000" stroke="none" 
	d="
M436.122681,247.322205 
	C436.290833,248.289658 436.266846,249.549713 435.974915,250.929504 
	C435.781494,249.904419 435.855988,248.759613 436.122681,247.322205 
z"/>
<path fill="#2B196A" opacity="1.000000" stroke="none" 
	d="
M365.692566,161.481506 
	C366.682098,161.998489 367.772980,162.837265 368.824951,164.068436 
	C367.788666,163.574997 366.791321,162.689163 365.692566,161.481506 
z"/>
<path fill="#2B196A" opacity="1.000000" stroke="none" 
	d="
M369.688263,165.513168 
	C370.678711,165.895294 371.806519,166.576309 372.971497,167.621765 
	C371.947632,167.261505 370.886627,166.536774 369.688263,165.513168 
z"/>
<path fill="#2B196A" opacity="1.000000" stroke="none" 
	d="
M423.523041,278.750610 
	C423.131714,279.727020 422.446991,280.840363 421.402374,281.990051 
	C421.771515,280.980133 422.500580,279.933807 423.523041,278.750610 
z"/>
<path fill="#2B196A" opacity="1.000000" stroke="none" 
	d="
M329.684937,133.356461 
	C330.160919,132.652695 330.961517,131.891983 332.139130,131.188385 
	C331.680603,131.930161 330.845062,132.614838 329.684937,133.356461 
z"/>
<path fill="#2B196A" opacity="1.000000" stroke="none" 
	d="
M326.605774,135.329620 
	C327.077240,134.646454 327.861572,133.929520 328.996887,133.317017 
	C328.538116,134.046249 327.728394,134.671051 326.605774,135.329620 
z"/>
<path fill="#2D1A6A" opacity="1.000000" stroke="none" 
	d="
M360.480774,379.106537 
	C360.551239,378.498962 360.902130,377.782959 361.583069,377.020203 
	C361.529175,377.648346 361.145203,378.323242 360.480774,379.106537 
z"/>
<path fill="#261969" opacity="1.000000" stroke="none" 
	d="
M277.531677,145.296906 
	C277.619202,144.903214 277.998932,144.467972 278.697754,144.026428 
	C278.619171,144.431885 278.221527,144.843628 277.531677,145.296906 
z"/>
<path fill="#261969" opacity="1.000000" stroke="none" 
	d="
M264.597565,154.351776 
	C264.710632,153.951889 265.128998,153.514221 265.886719,153.096771 
	C265.785004,153.515976 265.343933,153.914978 264.597565,154.351776 
z"/>
<path fill="#261969" opacity="1.000000" stroke="none" 
	d="
M345.704651,395.369141 
	C345.727936,394.971619 346.021454,394.498505 346.633789,394.003357 
	C346.626709,394.418732 346.300812,394.856110 345.704651,395.369141 
z"/>
<path fill="#2D1A6A" opacity="1.000000" stroke="none" 
	d="
M359.527100,380.380859 
	C359.385651,380.134918 359.510712,379.749176 359.937683,379.259827 
	C360.090942,379.517853 359.942261,379.879456 359.527100,380.380859 
z"/>
<path fill="#2D1A6A" opacity="1.000000" stroke="none" 
	d="
M378.338928,347.131653 
	C378.228088,346.966248 378.288116,346.611450 378.600128,346.132629 
	C378.738037,346.319855 378.623901,346.631073 378.338928,347.131653 
z"/>
<path fill="#E0DFF2" opacity="1.000000" stroke="none" 
	d="
M221.536392,72.943161 
	C221.505493,71.464188 221.387192,69.321091 222.192795,68.885078 
	C240.143677,59.169621 258.557404,50.730164 279.703705,52.243851 
	C283.746033,52.533203 287.729736,54.153885 291.631104,55.481792 
	C292.445953,55.759148 292.777649,57.456089 293.332001,58.498848 
	C292.348022,58.834827 291.124481,59.729271 290.415192,59.424973 
	C273.317841,52.089970 257.483124,58.031780 241.751587,64.107590 
	C234.982803,66.721825 228.494858,70.063156 221.536392,72.943161 
z"/>
<path fill="#DDDCEF" opacity="1.000000" stroke="none" 
	d="
M378.985504,119.529160 
	C378.875854,122.804420 378.658752,125.638298 378.802795,128.453705 
	C379.150970,135.259018 381.250580,141.153900 387.592102,144.843842 
	C388.482300,145.361832 388.820923,146.827774 389.414856,147.854935 
	C388.114929,148.033417 386.547974,148.771652 385.558441,148.299545 
	C379.138611,145.236496 376.050354,139.600388 374.959595,132.905289 
	C373.286530,122.635811 375.158783,112.677765 378.541321,102.987549 
	C378.897217,101.967995 380.523285,101.391808 381.560028,100.609909 
	C381.849487,101.906807 382.581512,103.288963 382.350952,104.485680 
	C381.407898,109.381035 380.170990,114.219780 378.985504,119.529160 
z"/>
<path fill="#261969" opacity="1.000000" stroke="none" 
	d="
M172.648148,132.764145 
	C172.860641,132.834473 173.083435,132.947678 173.306229,133.060898 
	C173.142654,133.074493 172.979095,133.088089 172.693176,132.949188 
	C172.570847,132.796677 172.658447,132.807037 172.648148,132.764145 
z"/>
<path fill="#FCCADF" opacity="1.000000" stroke="none" 
	d="
M337.481232,477.154724 
	C337.672943,477.403473 337.670898,477.798157 337.349060,478.204651 
	C336.987732,477.875153 337.073792,477.569916 337.481232,477.154724 
z"/>
<path fill="#E7E6E7" opacity="1.000000" stroke="none" 
	d="
M283.257111,44.662201 
	C283.264404,44.356480 283.505066,44.285557 283.745758,44.214630 
	C283.660675,44.442089 283.575592,44.669544 283.257111,44.662201 
z"/>
</svg>